<?xml version="1.0" standalone="no"?>
<!DOCTYPE svg PUBLIC "-//W3C//DTD SVG 1.1//EN" "http://www.w3.org/Graphics/SVG/1.1/DTD/svg11.dtd" >
<svg xmlns="http://www.w3.org/2000/svg">
    <metadata></metadata>
    <defs>
        <font id="ComfortaaBold" horiz-adv-x="1280">
            <font-face units-per-em="2048" ascent="1638" descent="-410"/>
            <missing-glyph horiz-adv-x="600"/>
            <glyph horiz-adv-x="0"/>
            <glyph horiz-adv-x="2048"/>
            <glyph unicode="&#xd;" horiz-adv-x="560"/>
            <glyph unicode=" " horiz-adv-x="600"/>
            <glyph unicode="&#x09;" horiz-adv-x="600"/>
            <glyph unicode="&#xa0;" horiz-adv-x="600"/>
            <glyph unicode="!" horiz-adv-x="400"
                   d="M69 126.5q0 44.5 11 70.5t30 45q43 43 101 43t101 -43q41 -41 41 -86q0 -74 -42.5 -115t-85.5 -41t-68.5 11t-44.5 30q-43 41 -43 85.5zM107 450v1044q0 44 29.5 74.5t74.5 30.5t74.5 -30.5t29.5 -74.5v-1044q0 -42 -23 -64q-38 -39 -70.5 -39t-51.5 8.5t-33 22.5 q-30 30 -30 72z"/>
            <glyph unicode="&#x22;" horiz-adv-x="560"
                   d="M61 1494q0 43 23 66q38 38 81 38t65 -22q39 -39 39 -82l-19 -286q-1 -35 -25.5 -59.5t-59.5 -24.5t-59.5 24.5t-25.5 59.5zM308 1495q0 43 22 65q39 39 82 39t66 -23q38 -38 38 -81l-19 -286q-1 -35 -25.5 -59.5t-59.5 -24.5t-59.5 24.5t-25.5 59.5z"/>
            <glyph unicode="#"
                   d="M63 555q4 85 81 113q20 7 40 7h129l44 251h-119q-41 0 -68 26.5t-27 58t10.5 53.5t26.5 38q36 36 85 36h129l64 362q7 41 33 63q44 39 87 39t68.5 -28t25.5 -53.5t-1 -30.5l-62 -352h172l64 362q6 42 32 64q45 38 87 38t68 -28.5t26 -53.5t-1 -30l-62 -352h120 q62 0 85 -54q8 -17 8 -37q-4 -83 -80 -113q-21 -8 -41 -8h-129l-45 -251h120q41 0 67.5 -26.5t26.5 -58t-10 -53.5t-27 -38q-37 -35 -85 -35h-129l-64 -362q-12 -67 -78 -94q-20 -8 -51 -8t-58 26.5t-27 50.5t2 34l62 353h-172l-64 -362q-7 -41 -33 -63q-44 -39 -87 -39 t-68.5 27.5t-25.5 51.5t1 32l63 353h-119q-38 0 -59 18q-35 31 -35 73zM528 675h170l45 251h-172z"/>
            <glyph unicode="$" horiz-adv-x="1060"
                   d="M77 286q0 41 29.5 70.5t64 29.5t53 -11t36.5 -28t36 -37.5t41 -39.5q56 -46 120 -56v556q-132 35 -218 144q-87 112 -87 249q0 140 84 251q85 112 221 147v62q0 45 29.5 74.5t74.5 29.5t74.5 -29.5t29.5 -74.5v-63q116 -29 199 -120q62 -67 62 -116.5t-29.5 -79 t-66.5 -29.5t-55 12t-34 30t-33 39.5t-43 39.5v-394q142 -51 232 -176q91 -125 91 -275q0 -241 -188 -390q-60 -47 -135 -74v-74q0 -43 -23 -65q-38 -39 -70.5 -39t-51.5 8t-33 23q-30 31 -30 73v50q-109 11 -203.5 67t-155.5 148q-21 27 -21 68zM361 1167q0 -50 25 -98 t71 -74v342q-96 -62 -96 -170zM665 261q64 51 82 88q32 62 32 132q0 153 -114 228v-448z"/>
            <glyph unicode="%" horiz-adv-x="1760"
                   d="M56 1190q0 167 120 288q119 121 288 121t288 -121q120 -121 120 -288q0 -166 -120 -287q-119 -121 -288 -121t-288 121q-120 121 -120 287zM238 104.5q0 42.5 25 70.5l1077 1383q36 42 71 42t54 -8.5t33 -22.5q31 -31 31 -70.5t-21 -66.5l-1088 -1399q-30 -33 -65 -33 t-54 8t-33 22q-30 32 -30 74.5zM265 1190q0 -81 57 -140q58 -59 142 -59q82 0 141 59q58 58 58 140q0 80 -59 140q-58 60 -140 60q-42 0 -78 -16t-63 -44q-58 -59 -58 -140zM889 408q0 83 32 157.5t87 130.5q121 120 289 120q166 0 287 -119t121 -289q0 -168 -121 -288 q-119 -120 -287 -120q-167 0 -287.5 120.5t-120.5 287.5zM1098 408q0 -83 58 -141t141 -58q82 0 141 59t59 140t-59 140t-141 59q-83 0 -141 -58t-58 -141z"/>
            <glyph unicode="&#x26;" horiz-adv-x="1440"
                   d="M72 473q0 192 193 342l77 60l-84 84h1q-110 112 -110 266q0 156 112 266q113 111 264 111q155 0 265.5 -112.5t110.5 -272t-151 -290.5l-91 -68l296 -299l151 162q28 30 74 30t77 -30t31 -64q0 -52 -28 -84l-154 -165l228 -230q31 -31 31 -63t-8.5 -51t-22.5 -34 q-30 -31 -74 -31t-76 28l-224 226l-114 -121q-134 -133 -321 -133q-188 0 -319 133q-134 136 -134 340zM284 473q0 -118 71 -191q69 -70 169 -70t171 70l115 125l-321 322l-90 -69q-115 -96 -115 -187zM362 1224.5q0 -67.5 46 -114.5l102 -103l95 75q84 69 84 143 q0 69 -49 117q-50 48 -115 48q-68 0 -116 -50q-47 -48 -47 -115.5z"/>
            <glyph unicode="'" horiz-adv-x="320"
                   d="M61 1494q0 43 23 66q38 38 81 38t65 -22q39 -39 39 -82l-19 -286q-1 -35 -25.5 -59.5t-59.5 -24.5t-59.5 24.5t-25.5 59.5z"/>
            <glyph unicode="(" horiz-adv-x="560"
                   d="M71 561.5q0 487.5 232 963.5q33 72 99 72q44 0 66 -23q38 -41 36.5 -80t-13.5 -58q-214 -438 -214 -876q0 -430 216 -881q13 -28 13 -62.5t-29.5 -65.5t-68.5 -31q-70 0 -104 71q-233 483 -233 970.5z"/>
            <glyph unicode=")" horiz-adv-x="560"
                   d="M71 -388q0 39 13 67q216 451 216 885t-214 872q-12 19 -13.5 47t6.5 47.5t22 34.5q30 32 68 32q70 0 105 -72q463 -962 -1 -1934q-34 -71 -88.5 -71t-84 31t-29.5 61z"/>
            <glyph unicode="*" horiz-adv-x="780"
                   d="M78 1332.5q0 33.5 9.5 52.5t24.5 33q32 28 59 28q43 1 76 -22l80 -58l-29 94q-5 18 -5 48t29.5 60.5t74.5 30.5t74.5 -30.5t29.5 -60.5t-5 -48l-29 -96l80 60q30 22 57 22t45.5 -7.5t33.5 -21.5q34 -32 34 -63.5t-7 -49.5t-20 -32q-29 -31 -74 -35l-104 -5l83 -58 q48 -35 48 -82t-30 -77.5t-89 -30.5q-57 6 -84 71l-42 103l-42 -105q-22 -70 -100 -70q-46 0 -68 23q-36 39 -36 73q-1 59 48 95l83 59l-103 4q-42 5 -72 33.5t-30 62z"/>
            <glyph unicode="+" horiz-adv-x="1120"
                   d="M78 788q0 45 29.5 74.5t74.5 29.5h275v275q0 43 30.5 74t75 31t74 -30.5t29.5 -74.5v-275h275q43 0 74 -30.5t31 -74t-31 -74t-74 -30.5h-275v-275q0 -45 -29.5 -74.5t-74.5 -29.5t-75 29.5t-30 74.5v275h-275q-45 0 -74.5 30t-29.5 75z"/>
            <glyph unicode="," horiz-adv-x="400"
                   d="M69 142q0 59 41.5 100.5t100.5 41.5t100.5 -41.5t41.5 -99t-10.5 -122.5t-30.5 -121q-48 -128 -120 -128q-36 0 -60.5 25t-24.5 58.5t22 58t22 55.5t-41 72.5t-41 100.5z"/>
            <glyph unicode="-" horiz-adv-x="800"
                   d="M74 560q0 45 29.5 74.5t74.5 29.5h456q45 0 74.5 -29.5t29.5 -74.5t-29.5 -74.5t-74.5 -29.5h-456q-45 0 -74.5 29.5t-29.5 74.5z"/>
            <glyph unicode="." horiz-adv-x="400"
                   d="M59 142q0 59 41.5 100.5t100.5 41.5t100.5 -41.5t41.5 -100.5t-41.5 -100.5t-100.5 -41.5t-100.5 41.5t-41.5 100.5z"/>
            <glyph unicode="/" horiz-adv-x="960"
                   d="M76 -59.5q0 32.5 9 55.5l617 1542q8 17 30.5 39.5t65.5 22.5t73.5 -30.5t30.5 -64t-9 -53.5l-617 -1542q-37 -62 -89 -62t-81.5 30t-29.5 62.5z"/>
            <glyph unicode="0" horiz-adv-x="1120"
                   d="M78 801q0 376 128 589q128 212 361 212q232 0 361 -214q128 -212 128 -587t-128 -587q-129 -214 -361 -214q-233 0 -361 211.5t-128 589.5zM289 801q0 -413 156 -545q52 -44 122.5 -44t123 45t86.5 123q68 158 68 421q0 260 -69 420q-73 169 -209 169q-135 0 -209 -168 q-69 -155 -69 -421z"/>
            <glyph unicode="1" horiz-adv-x="560"
                   d="M61 1412q0 72 67 104l229 76q18 7 49.5 7t61 -30.5t29.5 -74.5v-1390q0 -43 -30.5 -73.5t-74 -30.5t-74 30.5t-30.5 73.5v1245q-30 -10 -63 -22.5t-69 -12.5t-65.5 29.5t-29.5 68.5z"/>
            <glyph unicode="2" horiz-adv-x="1120"
                   d="M78 116q0 33 29 62l648 740q82 82 82 197q0 112 -81.5 193.5t-193.5 81.5q-113 0 -194 -80q-81 -79 -81 -195q0 -43 -30.5 -73.5t-74 -30.5t-74 30.5t-30.5 73.5q0 199 143 342q142 142 341 142q197 0 341 -144q143 -143 143 -340q0 -198 -142 -342l-486 -564h523 q44 0 74.5 -31t30.5 -74t-30.5 -73.5t-74.5 -30.5h-759q-69 0 -96 64q-8 19 -8 52z"/>
            <glyph unicode="3" horiz-adv-x="1120"
                   d="M78 492q0 46 29.5 76t74 30t75 -30t30.5 -82.5t21.5 -103.5t58.5 -88q80 -82 195 -82q114 0 195 83q80 82 80 197t-80 197q-81 83 -195 83q-45 0 -75 30.5t-30 76t30 75.5t72.5 30t79 16t63.5 44q59 60 59 142q0 84 -59 144q-61 60 -140 60q-82 0 -141 -60 q-60 -62 -58 -144q0 -43 -30.5 -74t-74 -31t-74 31t-30.5 74q0 172 120 294t288 122t288 -123q120 -124 120 -291.5t-123 -296.5q199 -159 199 -399q0 -203 -142 -347q-143 -145 -342 -145q-200 0 -342 144t-142 348z"/>
            <glyph unicode="4"
                   d="M80 502q0 40 20 66l682 987q31 44 86 44q41 0 65 -23q39 -37 39 -82v-883h123q44 0 74.5 -29.5t30.5 -74.5t-30.5 -74.5t-74.5 -29.5h-123v-299q0 -43 -30.5 -73.5t-74 -30.5t-74 30.5t-30.5 73.5v299h-579q-45 0 -74.5 29.5t-29.5 69.5zM384 611h379v549z"/>
            <glyph unicode="5" horiz-adv-x="1200"
                   d="M79 522q0 45 29.5 74.5t74 29.5t75 -29.5t30.5 -84.5t24.5 -112t67.5 -100q91 -91 221 -91q129 0 221 92t92 221q0 128 -92.5 220.5t-220.5 92.5h-342q-45 0 -74.5 30t-29.5 75v554q0 44 29.5 74.5t74.5 30.5h683q44 0 74.5 -31t30.5 -74t-30.5 -73.5t-74.5 -30.5h-579 v-346h238q210 0 366 -152q156 -153 156 -370q0 -214 -154 -368t-368 -154t-368 154t-154 368z"/>
            <glyph unicode="6" horiz-adv-x="1120"
                   d="M78 484q0 147 77 263l480 797q34 56 86 56t81.5 -30.5t29.5 -65t-14 -62.5l-285 -474h29q199 0 342 -143q142 -142 142 -341t-142 -341q-143 -143 -342 -143q-200 0 -342 142t-142 342zM287 484q0 -115 80 -195t195 -80t195 81q80 82 80 194t-80 194q-80 81 -195 81 t-195 -80t-80 -195z"/>
            <glyph unicode="7" horiz-adv-x="1120"
                   d="M77 98.5q0 37.5 19 70.5l682 1222h-583q-45 0 -74.5 29.5t-29.5 74t29.5 75t74.5 30.5h759q43 0 66 -22q39 -40 39 -75t-15 -64l-768 -1381q-31 -58 -84.5 -58t-84 30.5t-30.5 68z"/>
            <glyph unicode="8" horiz-adv-x="1120"
                   d="M78 491q0 239 201 397q-124 124 -124 295q0 173 123 294q122 121 291 121t291 -122t122 -292.5t-124 -295.5q202 -159 202 -397q0 -200 -144 -346q-144 -145 -347 -145t-347 144t-144 347zM290 491q0 -116 81.5 -197.5t197.5 -81.5t197 83q82 83 82 196t-82 196 q-81 83 -198 83q-58 0 -108.5 -22t-87.5 -60q-82 -81 -82 -197zM366 1183q0 -84 58.5 -142.5t144.5 -58.5q82 0 141 60q61 60 61 141q0 84 -61 143q-61 60 -142 60q-41 0 -78 -16t-64 -44q-60 -59 -60 -143z"/>
            <glyph unicode="9" horiz-adv-x="1120"
                   d="M78 1107q0 202 145 347q144 144 346 144q201 0 345 -146q146 -147 146 -345q0 -149 -80 -268l-471 -782q-36 -57 -94 -57q-45 0 -68 23q-39 39 -39 75t15 62l274 455h-28q-200 0 -346 145q-145 143 -145 347zM290 1106q0 -59 22.5 -110t60.5 -88q82 -81 196 -81t197 83 q82 82 82 197q0 113 -83 196t-196 83q-114 0 -197 -82q-82 -80 -82 -198z"/>
            <glyph unicode=":" horiz-adv-x="400"
                   d="M59 142q0 59 41.5 100.5t100.5 41.5t100.5 -41.5t41.5 -100.5t-41.5 -100.5t-100.5 -41.5t-100.5 41.5t-41.5 100.5zM59 976q0 59 41.5 100.5t100.5 41.5t100.5 -41.5t41.5 -100.5t-41.5 -100.5t-100.5 -41.5t-100.5 41.5t-41.5 100.5z"/>
            <glyph unicode=";" horiz-adv-x="400"
                   d="M59 142q0 59 41.5 100.5t100.5 41.5t100.5 -41.5t41.5 -99t-10.5 -122.5t-30.5 -121q-48 -128 -120 -128q-36 0 -60.5 25t-24.5 58.5t22 58t22 55.5t-41 72.5t-41 100.5zM59 976q0 59 41.5 100.5t100.5 41.5t100.5 -41.5t41.5 -100.5t-41.5 -100.5t-100.5 -41.5 t-100.5 41.5t-41.5 100.5z"/>
            <glyph unicode="&#x3c;" horiz-adv-x="1120"
                   d="M78 710q0 57 55 94l756 455q22 13 48 13t45 -8.5t33 -22.5q31 -31 31 -81t-52 -84l-609 -364l609 -366q52 -34 52 -84.5t-30.5 -80t-67.5 -29.5t-59 13l-756 454q-55 34 -55 91z"/>
            <glyph unicode="=" horiz-adv-x="1040"
                   d="M77 484q0 45 29.5 74.5t74.5 29.5h683q43 0 73.5 -30.5t30.5 -74t-30.5 -74t-73.5 -30.5h-683q-45 0 -74.5 30t-29.5 75zM77 940q0 45 29.5 74.5t74.5 29.5h683q43 0 73.5 -30.5t30.5 -74t-30.5 -74t-73.5 -30.5h-683q-45 0 -74.5 30t-29.5 75z"/>
            <glyph unicode="&#x3e;" horiz-adv-x="1120"
                   d="M78 261.5q0 50.5 52 84.5l609 366l-609 364q-52 34 -52 91q0 43 22 65q40 40 76.5 40t58.5 -13l756 -455q55 -37 55 -94t-55 -91l-756 -454q-22 -13 -59 -13t-67.5 29.5t-30.5 80z"/>
            <glyph unicode="?" horiz-adv-x="1120"
                   d="M78 1115q0 199 143 342q142 142 341 142q197 0 341 -144q143 -143 143 -340.5t-143 -343.5l-157 -145q-80 -80 -80 -175q0 -45 -29.5 -74.5t-74.5 -29.5t-75 29.5t-30 74.5q0 180 143 323l157 146q80 83 80 195t-81.5 193.5t-193.5 81.5q-113 0 -194 -80 q-38 -37 -59.5 -87t-21.5 -90t-8.5 -59t-22.5 -34q-29 -30 -74 -30t-74.5 30t-29.5 75zM420 142q0 59 41.5 100.5t100.5 41.5t100.5 -41.5t41.5 -100.5t-41.5 -100.5t-100.5 -41.5t-100.5 41.5t-41.5 100.5z"/>
            <glyph unicode="@" horiz-adv-x="2240"
                   d="M82 558.5q0 428.5 304 734.5q305 305 734 305t734 -305.5t305 -733.5q0 -651 -417 -651q-230 0 -258 207q-160 -129 -380 -129t-388 168t-168 405t168 405t405 168t405 -168t168 -405v-389q0 -48 48 -48q204 0 204 437q0 343 -242 583q-245 243 -585.5 243t-582 -241.5 t-241.5 -584.5t241.5 -584.5t584.5 -241.5q182 0 340 70q24 14 59.5 14t66 -31.5t30.5 -70.5t-19.5 -67.5t-48.5 -37.5q-198 -90 -428 -90q-430 0 -735 305q-304 305 -304 733.5zM761 559q0 -150 105 -254q106 -104 255 -104q150 0 254 106t104 252t-104 252t-254 106 q-149 0 -255 -104q-105 -104 -105 -254z"/>
            <glyph unicode="A" horiz-adv-x="1440"
                   d="M77 96q0 34 11 58l534 1374q32 72 102 72t100 -72l536 -1379q8 -20 8 -53.5t-31 -64.5t-75 -31t-67 23.5t-31 41.5l-185 475h-512l-186 -475q-8 -18 -31.5 -41.5t-67.5 -23.5t-74.5 31t-30.5 65zM549 752h348l-174 449z"/>
            <glyph unicode="B" horiz-adv-x="1120"
                   d="M74 106v1388q0 68 65 98q19 8 41 8h309q171 0 292.5 -121.5t121.5 -283t-94 -274.5q181 -107 232 -303q16 -61 16 -144t-39 -172.5t-106 -156.5q-143 -145 -346 -145h-386q-42 0 -66 22q-40 39 -40 84zM286 212h280q117 0 198 82q81 83 81 198t-82 197t-197 82h-280v-559 zM286 983h203q84 0 143 60q59 61 59 143t-60 142t-142 60h-203v-405z"/>
            <glyph unicode="C" horiz-adv-x="1480"
                   d="M78 799.5q0 331.5 234.5 566t565.5 234.5q284 0 513 -187q28 -27 28 -61.5t-8 -53.5t-23 -34q-30 -30 -72 -30t-97 45t-146.5 77t-194.5 32q-244 0 -416 -172t-172 -416.5t171.5 -416t416.5 -171.5q209 0 368 129q30 20 61 20q21 0 42 -9q65 -30 65 -98q0 -42 -33 -76 q-223 -178 -503 -178q-332 0 -566 234t-234 565.5z"/>
            <glyph unicode="D" horiz-adv-x="1360"
                   d="M76 106v1388q0 69 66 98q19 8 41 8h308q330 0 565 -235t235 -565.5t-234.5 -565t-565.5 -234.5h-308q-43 0 -67 22q-40 39 -40 84zM289 212h202q243 0 415 172q173 173 173 415.5t-173 415.5t-415 173h-202v-1176z"/>
            <glyph unicode="E"
                   d="M76 106v1388q0 45 22 68q39 38 84 38h925q44 0 75 -31t31 -75t-31 -75t-75 -31h-819v-482h588q44 0 75 -31t31 -75t-31 -75t-75 -31h-588v-482h819q44 0 75 -31t31 -75t-31 -75t-75 -31h-925q-45 0 -68 22q-38 39 -38 84z"/>
            <glyph unicode="F"
                   d="M76 106v1388q0 45 22 68q39 38 84 38h925q44 0 75 -31t31 -75t-31 -75t-75 -31h-819v-482h588q44 0 75 -31t31 -75t-31 -75t-75 -31h-588v-588q0 -44 -31 -75t-75 -31t-75 31t-31 75z"/>
            <glyph unicode="G" horiz-adv-x="1500"
                   d="M78 799.5q0 331.5 234.5 566t565.5 234.5q284 0 513 -187q28 -26 28 -61t-8 -54t-23 -34q-30 -30 -73 -30t-75 30q-157 124 -362 124q-244 0 -416 -172t-172 -416.5t171.5 -416t416.5 -171.5q181 0 324 95v310h-276q-45 0 -75.5 30.5t-30.5 64t8 53t22 33.5q31 31 76 31 h383q42 0 65 -23q40 -40 40 -83v-469q0 -42 -33 -76q-223 -178 -503 -178q-332 0 -566 234t-234 565.5z"/>
            <glyph unicode="H"
                   d="M76 106v1388q0 44 31 75t75 31t75 -31t31 -75v-588h713v588q0 44 31 75t75 31t75 -31t31 -75v-1388q0 -44 -31 -75t-75 -31t-75 31t-31 75v588h-713v-588q0 -44 -31 -75t-75 -31t-75 31t-31 75z"/>
            <glyph unicode="I" horiz-adv-x="480"
                   d="M146 106v1388q0 44 31 75t75 31t75 -31t31 -75v-1388q0 -44 -31 -75t-75 -31t-75 31t-31 75z"/>
            <glyph unicode="J" horiz-adv-x="1120"
                   d="M74 492q0 44 31 75t75 31t75 -31t31 -82.5t22 -102.5t60 -88q81 -82 198 -82t198 82q81 83 81 198v1002q0 44 31 75t75 31t75 -31t31 -75v-1002q0 -201 -145 -347q-143 -145 -346 -145q-204 0 -348 146t-144 346z"/>
            <glyph unicode="K" horiz-adv-x="1200"
                   d="M75 106v1388q0 44 31 75t75 31t75 -31t31 -75v-592l665 665q33 33 66 33t52.5 -8t33.5 -22q31 -31 31 -75.5t-31 -75.5l-524 -525l535 -725q20 -28 20 -54.5t-8 -46.5t-22 -35q-31 -33 -82 -33t-81 45l-514 697l-141 -141v-495q0 -44 -31 -75t-75 -31t-75 31t-31 75z"/>
            <glyph unicode="L" horiz-adv-x="1200"
                   d="M75 106v1388q0 44 31 75t75 31t75 -31t31 -75v-1282h742q44 0 75 -31t31 -75t-31 -75t-75 -31h-848q-45 0 -67 22q-39 39 -39 84z"/>
            <glyph unicode="M" horiz-adv-x="1760"
                   d="M80 106v1388q0 45 22 68q39 38 92.5 38t85.5 -57l600 -1199l600 1199q36 57 94 57q45 0 68 -22q38 -39 38 -84v-1388q0 -44 -31 -75t-75 -31t-75 31t-31 75v938l-496 -991q-31 -53 -94.5 -53t-94.5 64l-491 980v-938q0 -44 -31 -75t-75 -31t-75 31t-31 75z"/>
            <glyph unicode="N" horiz-adv-x="1440"
                   d="M77 106v1388q0 45 23 68q38 38 84 38t81 -39l892 -1147v1080q0 44 31 75t75 31t75 -31t31 -75v-1388q0 -45 -23 -68q-38 -38 -84 -38t-80 37l-893 1147v-1078q0 -44 -31 -75t-75 -31t-75 31t-31 75z"/>
            <glyph unicode="O" horiz-adv-x="1760"
                   d="M80 799.5q0 331.5 234.5 566t565 234.5t565.5 -235t235 -565.5t-234.5 -565t-566 -234.5t-565.5 234t-234 565.5zM292 799.5q0 -243.5 172 -415.5t416 -172t416 172t172 415.5t-172.5 416t-415.5 172.5t-416 -173q-172 -172 -172 -415.5z"/>
            <glyph unicode="P" horiz-adv-x="1080"
                   d="M74 106v1388q0 45 22 68q39 38 84 38h308q216 0 374 -156q98 -97 138 -234q19 -68 19 -140q0 -218 -156 -374t-375 -156h-202v-434q0 -44 -31 -75t-75 -31t-75 31t-31 75zM286 752h202q129 0 224 93q94 93 94 225q0 133 -94 226q-94 92 -224 92h-202v-636z"/>
            <glyph unicode="Q" horiz-adv-x="1760"
                   d="M80 799.5q0 331.5 234.5 566t565 234.5t565.5 -235t235 -565q0 -279 -164 -486l134 -134q30 -33 30 -65t-8 -51t-22 -34q-31 -30 -76.5 -30t-75.5 31l-132 133q-207 -164 -486 -164q-332 0 -566 234t-234 565.5zM292 799.5q0 -243.5 172 -415.5t416 -172q189 0 335 103 l-141 140q-30 35 -30 66t8 50.5t22 34.5q31 30 75.5 30t75.5 -31l140 -139q103 145 103 334q0 243 -172.5 415.5t-415.5 172.5t-416 -173q-172 -172 -172 -415.5z"/>
            <glyph unicode="R" horiz-adv-x="1200"
                   d="M75 106v1388q0 45 23 68q38 38 83 38h386q203 0 347 -145q144 -146 144 -347q0 -206 -146 -350q-49 -47 -113 -83l319 -511q17 -28 17 -54.5t-8 -45.5t-23 -34q-30 -30 -80.5 -30t-85.5 52l-353 565h-298v-511q0 -44 -31 -75t-75 -31t-75 31t-31 75zM287 829h280 q117 0 197 83q82 83 82 196q0 116 -82 198t-197 82h-280v-559z"/>
            <glyph unicode="S" horiz-adv-x="1060"
                   d="M74 278.5q0 29.5 8 49t22 34.5q31 30 83 30t88 -57t99 -90t128 -33t115.5 22.5t88.5 60.5q81 83 81 199q0 109 -76 188q-74 78 -167 86.5t-162 43.5t-121 90q-111 119 -111 279q0 193 146 319h-1q115 100 270 100q162 0 283 -114q41 -38 64.5 -76.5t23.5 -65.5t-8 -46 t-22 -34q-31 -30 -63.5 -30t-48 6t-28.5 17q-20 18 -46 56q-50 73 -157 73q-78 0 -138 -58q-63 -61 -63 -144q0 -77 54 -136.5t139 -66t167 -47.5t144 -106q133 -143 133 -330q0 -234 -173 -380h1q-139 -118 -316 -118q-190 0 -333 127q-48 42 -76 82t-28 69.5z"/>
            <glyph unicode="T" horiz-adv-x="1360"
                   d="M77 1494q0 44 31 75t75 31h1002q44 0 75 -31t31 -75t-31 -75t-75 -31h-395v-1282q0 -44 -31 -75t-75 -31t-75 31t-31 75v1282h-395q-44 0 -75 31t-31 75z"/>
            <glyph unicode="U"
                   d="M76 569v925q0 44 31 75t75 31t75 -31t31 -75v-925q0 -146 104 -251q104 -106 252 -106q149 0 252 105q105 106 105 252v925q0 44 31 75t75 31t75 -31t31 -75v-925q0 -152 -78 -285q-116 -200 -341 -264q-72 -20 -150 -20q-236 0 -402 167t-166 402z"/>
            <glyph unicode="V" horiz-adv-x="1440"
                   d="M77 1493.5q0 22.5 8 42t23 34.5q30 30 75 30q70 0 98 -63l442 -1137l442 1137q24 63 98 63q45 0 67 -22q39 -39 39 -74.5t-12 -63.5l-537 -1373q-27 -67 -97 -67t-97 67l-537 1373q-12 31 -12 53.5z"/>
            <glyph unicode="W" horiz-adv-x="1920"
                   d="M82 1507q0 31 31 62t75 31t68 -24.5t32 -46.5l285 -1027l284 1026q8 31 36.5 51.5t63 20.5t63 -18.5t39.5 -52.5l285 -1027l286 1027q7 22 31.5 46.5t68.5 24.5t74 -31q30 -30 31 -62q0 -31 -7 -55l-377 -1366q-31 -86 -107 -86q-75 0 -106 84l-279 1011l-279 -1009 q-31 -86 -107 -86q-77 0 -106 84l-379 1369q-6 23 -6 54z"/>
            <glyph unicode="X" horiz-adv-x="1440"
                   d="M76 102q0 41 23 70l489 628l-492 632q-19 27 -19 66.5t31 70.5t77 31t73 -31l465 -596l465 596q28 31 73.5 31t76 -31t30.5 -70.5t-19 -66.5l-491 -632l489 -628q22 -29 22 -70t-30.5 -71.5t-79 -30.5t-78.5 38l-458 589l-466 -596q-31 -31 -75 -31t-75 30.5t-31 71.5z "/>
            <glyph unicode="Y"
                   d="M76 1499q0 39 31 70t81 31t80 -44l376 -563l376 563q31 44 81 44t80.5 -31t30.5 -71t-16 -64l-446 -666v-662q0 -44 -31 -75t-74.5 -31t-75 31t-31.5 75v662l-445 666q-17 26 -17 65z"/>
            <glyph unicode="Z" horiz-adv-x="1440"
                   d="M77 1494q0 44 31.5 75t74.5 31h1080q45 0 67 -22q39 -39 39 -78t-20 -68l-949 -1220h863q45 -1 75.5 -32t30.5 -75t-30.5 -74.5t-74.5 -30.5h-1081q-45 0 -67 22q-39 39 -39 79q0 42 22 71l947 1216h-863q-43 0 -74.5 31t-31.5 75z"/>
            <glyph unicode="[" horiz-adv-x="640"
                   d="M76 -372v1866q0 45 30 76.5t77 31.5h311q46 0 76.5 -31.5t30.5 -77t-30.5 -75.5t-76.5 -30h-205v-1654h205q46 0 76.5 -30t30.5 -76.5t-30.5 -77t-76.5 -30.5h-311q-47 0 -77 30.5t-30 77.5z"/>
            <glyph unicode="\" horiz-adv-x="960"
                   d="M60 1505.5q0 33.5 30 64.5t76 31q72 0 98 -63l619 -1550q9 -19 9 -42t-8 -42.5t-22 -34.5q-30 -31 -67 -31q-81 0 -107 63l-620 1549q-8 22 -8 55.5z"/>
            <glyph unicode="]" horiz-adv-x="640"
                   d="M76 -372.5q0 46.5 30 76.5t77 30h204v1654h-204q-47 0 -77 30t-30 75.5t30 77t77 31.5h311q46 0 76.5 -31.5t30.5 -76.5v-1866q0 -47 -30.5 -77.5t-76.5 -30.5h-311q-47 0 -77 30.5t-30 77z"/>
            <glyph unicode="^" horiz-adv-x="960"
                   d="M76 1033q0 39 14 60l308 462q29 44 84 44t87 -44l308 -462q15 -22 15 -49t-8 -46t-22 -34q-31 -30 -79 -30t-80 41l-219 329l-220 -329q-32 -41 -80.5 -41t-78 30t-29.5 69z"/>
            <glyph unicode="_" horiz-adv-x="960"
                   d="M-89 -104.5q0 43.5 30.5 74t74.5 30.5h960q43 0 73.5 -30.5t30.5 -74t-30.5 -74t-73.5 -30.5h-960q-44 0 -74.5 30.5t-30.5 74z"/>
            <glyph unicode="`" horiz-adv-x="560"
                   d="M71 1493.5q0 44.5 29.5 75t73 30.5t75.5 -31l200 -199q26 -28 26 -72t-29.5 -73.5t-74 -29.5t-72.5 28l-200 199q-28 28 -28 72.5z"/>
            <glyph unicode="a"
                   d="M80 560q0 232 164 396t395 164t396 -164t165 -396v-456q0 -43 -30.5 -73.5t-74 -30.5t-74 30.5t-30.5 73.5v20q-155 -124 -351 -124q-232 0 -396 164t-164 396zM289 560q0 -144 102 -248q102 -103 249 -103q146 0 248 104q103 104 103 247t-103 247q-102 104 -248 104 q-74 0 -138 -28t-111 -75q-102 -104 -102 -248z"/>
            <glyph unicode="b"
                   d="M80 560v936q0 45 29.5 74.5t74 29.5t75 -29.5t30.5 -74.5v-500q149 124 365 124t382 -164q164 -162 164 -396t-165 -397t-396 -163t-395 164t-164 396zM289 560q0 -144 102 -248q102 -103 249 -103q73 0 137 28t111 76q103 104 103 247t-103 247q-102 104 -248 104 q-147 0 -249 -103q-102 -104 -102 -248z"/>
            <glyph unicode="c" horiz-adv-x="1120"
                   d="M78 560q0 232 164 396t385.5 164t375.5 -136q36 -32 36 -78t-29.5 -76t-71 -30t-82.5 34q-93 77 -218 77q-145 0 -249 -103q-103 -101 -103 -248t103 -248q104 -103 249 -103q128 0 228 86q28 21 70 21q1 0 1 1q41 1 69 -29q30 -30 30 -74.5t-33 -77.5 q-155 -136 -376 -136t-385 164t-164 396z"/>
            <glyph unicode="d"
                   d="M80 560q0 232 164 396t379.5 164t367.5 -123v499q0 45 29.5 74.5t74 29.5t75 -29.5t30.5 -74.5v-936q0 -234 -165 -397t-396 -163t-395 164t-164 396zM289 560q0 -144 102 -248q102 -103 249 -103q146 0 248 104q103 104 103 247t-103 247q-102 104 -248 104 q-147 0 -249 -103q-102 -104 -102 -248z"/>
            <glyph unicode="e"
                   d="M80 560q0 232 164 396t395 164t397 -164q164 -162 164 -396q0 -45 -30.5 -74.5t-74.5 -29.5h-792q34 -110 127 -178q94 -69 216.5 -69t207.5 73q39 32 81 32q1 0 1 1q40 1 70 -29t30 -74.5t-30 -75.5q-155 -136 -376.5 -136t-385.5 164t-164 396zM303 664h674 q-34 109 -129 178q-93 69 -208 69t-210 -68.5t-127 -178.5z"/>
            <glyph unicode="f" horiz-adv-x="800"
                   d="M65 959q0 45 29.5 74.5t74.5 29.5h48v52q0 484 484 484q43 0 73.5 -30.5t30.5 -74t-30.5 -74t-73.5 -30.5q-276 0 -276 -275v-52h201q43 0 73.5 -30.5t30.5 -74t-30.5 -74t-73.5 -30.5h-201v-750q0 -42 -22 -65q-37 -39 -82 -39q-69 0 -96 64q-8 19 -8 40v750h-48 q-45 0 -74.5 30t-29.5 75z"/>
            <glyph unicode="g"
                   d="M80 560q0 232 164 396t395 164t396 -164t165 -396v-556q0 -208 -175 -350q-165 -134 -377 -134q-254 0 -430 180q-57 59 -97 132q-16 23 -16 62t30 68.5t67.5 29.5t57 -14t53.5 -62q132 -187 335 -187q162 0 274 112q69 84 69 163v119q-150 -123 -366.5 -123t-380.5 164 t-164 396zM289 560q0 -144 102 -248q102 -103 249 -103q146 0 248 104q103 104 103 247t-103 247q-102 104 -248 104q-74 0 -138 -28t-111 -75q-102 -104 -102 -248z"/>
            <glyph unicode="h" horiz-adv-x="1200"
                   d="M79 105v1390q0 44 30.5 74.5t73.5 30.5t73.5 -30.5t31.5 -74.5v-480q133 103 313 103q210 0 366 -152q156 -153 156 -370v-491q-1 -44 -31.5 -74.5t-73.5 -30.5t-73.5 30.5t-30.5 74.5v491q0 128 -92.5 220.5t-220.5 92.5q-129 0 -221 -92t-92 -221v-491 q0 -44 -30.5 -74.5t-74 -30.5t-74 30.5t-30.5 74.5z"/>
            <glyph unicode="i" horiz-adv-x="480"
                   d="M117 1319q0 51 36 87t87 36t87 -36t36 -87t-36 -87t-87 -36t-87 36t-36 87zM136 105v910q0 44 30.5 74.5t73.5 30.5t73.5 -30.5t31.5 -74.5v-910q-1 -44 -31.5 -74.5t-73.5 -30.5t-73.5 30.5t-30.5 74.5z"/>
            <glyph unicode="j" horiz-adv-x="656"
                   d="M-5 -374q0 45 29.5 74.5t80.5 29.5t101 21.5t88 58.5q81 82 81 195v1010q0 44 30.5 74.5t73.5 30.5t73.5 -30.5t30.5 -74.5v-1010q0 -198 -143 -341t-341 -143q-45 0 -74.5 30t-29.5 75zM356 1319q0 51 36 87t87 36t87 -36t36 -87t-36 -87t-87 -36t-87 36t-36 87z"/>
            <glyph unicode="k" horiz-adv-x="1120"
                   d="M78 105v1390q0 44 30.5 74.5t74 30.5t74 -30.5t30.5 -74.5v-780l598 389q25 16 51.5 16t45.5 -8t33 -22q31 -33 31 -81.5t-40 -75.5l-419 -272l430 -484q29 -32 29 -63t-8.5 -50t-22.5 -34q-29 -30 -72.5 -30t-71.5 27l-462 519l-122 -80v-361q0 -43 -30.5 -74t-74 -31 t-74 31t-30.5 74z"/>
            <glyph unicode="l" horiz-adv-x="480"
                   d="M70 104v1391q0 44 29.5 74.5t74.5 30.5t74.5 -30.5t29.5 -74.5v-1286h48q43 0 73.5 -30.5t30.5 -74t-30.5 -74t-73.5 -30.5h-153q-43 0 -73 30.5t-30 73.5z"/>
            <glyph unicode="m" horiz-adv-x="1760"
                   d="M86 105v911q0 43 30.5 73.5t69.5 30.5q81 0 103 -71q107 71 243 71q211 0 342 -159q139 159 341 159q183 0 314.5 -131.5t131.5 -314.5v-569q0 -44 -30.5 -74.5t-74 -30.5t-73.5 30.5t-30 74.5v569q0 96 -69 166q-69 71 -169 71q-96 0 -167 -70q-70 -68 -70 -167v-569 q0 -44 -30.5 -74.5t-74 -30.5t-74 30.5t-30.5 74.5v569q0 97 -70 167t-167 70q-98 0 -167.5 -69.5t-69.5 -167.5v-569q0 -44 -30.5 -74.5t-74 -30.5t-74 30.5t-30.5 74.5z"/>
            <glyph unicode="n" horiz-adv-x="1200"
                   d="M79 105v910q0 43 30.5 74t74 31t74 -31t30.5 -72q133 103 313 103q210 0 366 -152q156 -153 156 -370v-493q0 -44 -30.5 -74.5t-74 -30.5t-74 30.5t-30.5 74.5v493q0 128 -92.5 220.5t-220.5 92.5q-129 0 -221 -92t-92 -221v-493q0 -44 -30.5 -74.5t-74 -30.5t-74 30.5 t-30.5 74.5z"/>
            <glyph unicode="o"
                   d="M80 560q0 232 164 396t395 164t397 -164q163 -163 163 -399q0 -232 -164 -394q-165 -163 -396 -163t-395 164t-164 396zM289 560q0 -144 102 -248q102 -103 249 -103q146 0 248 104q103 104 103 247t-103 247q-102 104 -248 104q-74 0 -138 -28t-111 -75 q-102 -104 -102 -248z"/>
            <glyph unicode="p"
                   d="M80 -376v936q0 232 164 396t395 164t397 -164q164 -162 164 -396t-164 -396q-166 -164 -381.5 -164t-365.5 123v-499q0 -45 -30.5 -74.5t-75 -29.5t-74 29.5t-29.5 74.5zM289 560q0 -144 102 -248q102 -103 249 -103q146 0 248 104q103 104 103 247t-103 247 q-102 104 -248 104q-147 0 -249 -103q-102 -104 -102 -248z"/>
            <glyph unicode="q"
                   d="M80 560q0 232 164 396t395 164t396 -164t165 -396v-936q0 -45 -30.5 -74.5t-75 -29.5t-74 29.5t-29.5 74.5v499q-150 -123 -366.5 -123t-380.5 164t-164 396zM289 560q0 -144 102 -248q102 -103 249 -103q146 0 248 104q103 104 103 247t-103 247q-102 104 -248 104 q-74 0 -138 -28t-111 -75q-102 -104 -102 -248z"/>
            <glyph unicode="r" horiz-adv-x="960"
                   d="M76 104v912q0 43 30.5 73.5t74 30.5t74 -30.5t30.5 -73.5v-20q155 124 351 124q185 0 258 -70q28 -27 28 -59.5t-8.5 -51.5t-22.5 -33q-29 -31 -61 -31t-76 18t-117.5 18t-137.5 -27.5t-111 -75.5q-103 -102 -103 -248v-456q0 -43 -30.5 -73.5t-74 -30.5t-74 30.5 t-30.5 73.5z"/>
            <glyph unicode="s" horiz-adv-x="1060"
                   d="M77 774q0 90 40.5 151.5t105.5 104.5q136 90 310 90q250 0 429 -201q21 -26 21 -67t-29.5 -70.5t-68 -29.5t-61 18t-43.5 39q-102 102 -247 102t-231 -88q-16 -16 -16 -44t26 -38l468 -154q98 -38 132 -74h-1q76 -77 76 -167.5t-40.5 -151.5t-105.5 -104 q-134 -90 -309 -90q-252 0 -429 199q-22 29 -22 69.5t29.5 70t68.5 29.5t62 -19.5t42 -37.5q102 -102 247 -102t232 90q15 17 15 43t-27 37l-467 154q-94 36 -132 74h1q-76 77 -76 167z"/>
            <glyph unicode="t" horiz-adv-x="800"
                   d="M75 1015.5q0 43.5 30.5 74t72.5 30.5h47v376q0 43 30.5 73.5t74 30.5t74 -30.5t30.5 -73.5v-376h125q43 0 73 -30.5t30 -74t-30 -74t-73 -30.5h-125v-503q0 -199 200 -199q43 0 73 -30.5t30 -74t-30 -74t-73 -30.5q-409 0 -409 408v503h-47q-42 0 -72.5 30.5t-30.5 74z "/>
            <glyph unicode="u" horiz-adv-x="1200"
                   d="M79 522v494q0 43 30.5 73.5t74 30.5t74 -30.5t30.5 -73.5v-494q0 -130 91.5 -221.5t221.5 -91.5q129 0 221 92t92 221v494q0 43 30.5 73.5t74 30.5t74 -30.5t30.5 -73.5v-912q0 -43 -30.5 -73.5t-75 -30.5t-73.5 30t-30 73q-132 -103 -313 -103q-214 0 -368 154t-154 368 z"/>
            <glyph unicode="v" horiz-adv-x="1200"
                   d="M79 1016q0 42 22 65q37 39 73 39q71 0 100 -52l327 -713l326 712q29 53 91 53q68 0 96 -64q9 -19 9 -41t-9 -41l-421 -918q-28 -56 -93 -56t-91 56l-422 918q-8 21 -8 42z"/>
            <glyph unicode="w" horiz-adv-x="1600"
                   d="M84 1017.5q0 19.5 8 38.5t22 34q29 30 70 30q76 0 98 -58l210 -627l203 608q26 77 100.5 77t100.5 -77l203 -609l210 628q18 58 94 58q68 0 97 -64q8 -19 8 -39t-8 -41l-303 -909q-21 -67 -98 -67q-35 0 -62 20t-35 47l-206 618l-206 -618q-9 -29 -36 -48t-62 -19 t-61.5 19t-36.5 48l-303 909q-7 22 -7 41.5z"/>
            <glyph unicode="x" horiz-adv-x="1120"
                   d="M78 102.5q0 40.5 21 66.5l327 392l-324 386q-24 27 -24 58.5t8 50.5t22 34q29 30 75 30t77 -34l302 -361l302 361q30 34 64.5 34t53.5 -8t33 -22q31 -33 31 -72.5t-25 -70.5l-324 -386l327 -392q22 -25 22 -55.5t-8.5 -49.5t-22.5 -34q-29 -30 -73 -30t-76 32l-304 366 l-306 -366q-30 -32 -63 -32t-52 8t-33 22q-30 32 -30 72.5z"/>
            <glyph unicode="y" horiz-adv-x="1120"
                   d="M78 1014.5q0 22.5 8 41.5t22 34q29 30 67 30q78 0 106 -69l281 -671l281 673q27 67 98 67q68 0 97 -64q8 -19 8 -40.5t-11 -46.5l-575 -1379q-13 -31 -40 -50.5t-65.5 -19.5t-68 30t-29.5 64.5t10 56.5l181 433l-360 865q-10 23 -10 45.5z"/>
            <glyph unicode="z" horiz-adv-x="1120"
                   d="M78 112q0 29 21 57l619 742h-536q-42 0 -72.5 30.5t-30.5 74t30.5 74t72.5 30.5h759q68 0 97 -64q8 -19 8 -50t-25 -59l-618 -738h538q43 0 73 -30.5t30 -74t-30 -74t-73 -30.5h-759q-69 0 -96 64q-8 19 -8 48z"/>
            <glyph unicode="{" horiz-adv-x="800"
                   d="M74 560q0 45 29.5 74.5t74.5 29.5q123 0 123 124v478q0 333 333 333q45 0 74.5 -30.5t29.5 -75t-29.5 -74t-74.5 -29.5q-124 0 -124 -124v-478q0 -144 -66 -228q66 -84 66 -228v-478q0 -124 124 -124q45 0 74.5 -29.5t29.5 -74.5t-29.5 -75t-74.5 -30q-333 0 -333 333 v478q0 124 -123 124q-45 0 -74.5 29.5t-29.5 74.5z"/>
            <glyph unicode="|" horiz-adv-x="800"
                   d="M301 -375v1870q0 45 30 75t75 30t74.5 -30t29.5 -75v-1870q0 -45 -29.5 -75t-74.5 -30t-75 30t-30 75z"/>
            <glyph unicode="}" horiz-adv-x="800"
                   d="M74 -374q0 45 29.5 74.5t74.5 29.5q124 0 124 124v478q0 144 66 228q-66 84 -66 228v478q0 124 -124 124q-45 0 -74.5 29.5t-29.5 74t29.5 75t74.5 30.5q333 0 333 -333v-478q0 -124 123 -124q45 0 74.5 -29.5t29.5 -74.5t-29.5 -74.5t-74.5 -29.5q-123 0 -123 -124v-478 q0 -333 -333 -333q-45 0 -74.5 30t-29.5 75z"/>
            <glyph unicode="~" horiz-adv-x="960"
                   d="M67.5 749.5q0.5 44.5 30.5 73t69.5 28.5t84.5 -33t86 -33t71 27q87 82 219 82q88 0 149 -33.5t88.5 -65.5t27.5 -74.5t-30.5 -72t-68.5 -29.5t-85.5 33t-86 33t-71.5 -27q-90 -82 -219 -82q-89 0 -150 33t-88 64.5t-26.5 76z"/>
            <glyph unicode="&#xa1;" horiz-adv-x="400"
                   d="M69 963.5q0 44.5 11.5 70.5t31.5 45q42 41 84.5 41t68.5 -11t45 -30q43 -41 43 -85.5t-11 -70.5t-30 -45q-43 -43 -101 -43t-101 43q-41 41 -41 85.5zM107 -374v1044q0 66 63 94q19 9 40.5 9t40.5 -8t33 -22q31 -31 31 -73v-1044q0 -44 -29.5 -74.5t-74.5 -30.5 t-74.5 30.5t-29.5 74.5z"/>
            <glyph unicode="&#xa2;" horiz-adv-x="1120"
                   d="M84 560q0 229 165.5 394.5t394.5 165.5h28l96 238q26 66 98 66q44 0 66 -23q38 -40 38 -82q0 -15 -8 -38l-83 -210q58 -31 112.5 -71t54.5 -95q0 -42 -22 -66q-38 -39 -79.5 -39t-72.5 25.5t-71 49.5l-262 -652q54 -14 113 -14q121 0 221 86q28 22 69.5 22t71 -29.5 t29.5 -74t-33 -77.5q-157 -136 -366 -136q-99 0 -182 28l-106 -265q-12 -27 -38.5 -47t-53.5 -20t-46 8.5t-34 23.5q-30 32 -30 62.5t7 49.5l118 295q-15 14 -30 29q-165 163 -165 396zM293 560q0 -120 70 -213l224 559q-128 -22 -212 -122q-82 -97 -82 -224z"/>
            <glyph unicode="&#xa3;" horiz-adv-x="1040"
                   d="M77 722q0 46 30 75.5t75 29.5h66q-22 102 -58 188t-36 170t33 160t89 132q123 121 292 121q207 0 345 -184q20 -29 20 -69.5t-30 -71t-72.5 -30.5t-67 27.5t-52.5 56.5q-59 59 -143 59t-143.5 -59.5t-59.5 -143.5q0 -35 23 -90q52 -121 76 -266h258q46 0 75.5 -29.5 t29.5 -75.5t-29.5 -76.5t-75.5 -30.5h-242q-4 -202 -68 -403h321q31 61 58.5 107.5t83.5 46.5q68 0 97 -65q9 -19 9 -44t-12 -47l-74 -146q-34 -64 -96 -64h-539q-52 0 -79 30t-27 65.5t7 51.5q104 243 108 468h-87q-45 0 -75 30.5t-30 76.5z"/>
            <glyph unicode="&#xa4;" horiz-adv-x="960"
                   d="M104 463.5q0 43.5 31 75.5l53 49q-36 69 -36 151.5t34 149.5l-51 54q-31 27 -31 60.5t8 52.5t22 34q31 30 73.5 30t73.5 -28l50 -55q79 41 153 36q78 0 147 -34l55 51q30 30 62.5 30t51.5 -8t33 -22q30 -32 29.5 -77t-30.5 -73l-50 -47q34 -67 34 -150t-33 -150l51 -54 q29 -31 29 -75t-29.5 -73.5t-72.5 -29.5t-74 27l-50 55q-72 -35 -151 -35t-149 32l-53 -49q-34 -30 -77 -30t-73 29.5t-30 73zM360 752.5q0 -36.5 9.5 -59t26.5 -39.5q35 -37 74 -37t61.5 9.5t38.5 26.5q37 38 37 87q0 82 -77 114q-22 10 -47 10t-47.5 -10t-39.5 -27 q-36 -38 -36 -74.5z"/>
            <glyph unicode="&#xa5;"
                   d="M80 584q0 45 29.5 74.5t74.5 29.5h351v92l-52 79h-299q-45 0 -74.5 30t-29.5 75t29.5 74.5t74.5 29.5h160l-247 368q-17 26 -17 64.5t29.5 69t78.5 30.5t81 -44l371 -554l370 554q32 44 81 44t78.5 -30.5t29.5 -69t-16 -64.5l-247 -368h160q44 0 75 -29.5t31 -75t-31 -75 t-75 -29.5h-300l-52 -79v-92h351q44 0 74.5 -29.5t30.5 -74.5t-30.5 -74.5t-74.5 -29.5h-351v-374q0 -45 -30 -75.5t-75 -30.5t-74.5 30.5t-29.5 75.5v374h-351q-45 0 -74.5 29.5t-29.5 74.5z"/>
            <glyph unicode="&#xa6;" horiz-adv-x="480"
                   d="M145 309q0 45 30 74.5t75 29.5t74.5 -29.5t29.5 -74.5v-683q0 -45 -29.5 -75t-74.5 -30t-75 30t-30 75v683zM145 940v683q0 45 30 74.5t75 29.5t74.5 -29.5t29.5 -74.5v-683q0 -45 -29.5 -75t-74.5 -30t-75 30t-30 75z"/>
            <glyph unicode="&#xa7;" horiz-adv-x="960"
                   d="M76 -60q0 46 30.5 76.5t76.5 30.5t76 -30.5t30 -74.5t16.5 -81.5t44.5 -64.5q60 -61 144 -61q81 0 143 61q61 59 61 144q0 82 -61 143t-145 61t-160.5 32.5t-133.5 89.5q-122 124 -122 296.5t137 310.5q-137 132 -137 310q0 171 122 295q123 124 296 124q170 0 294 -124 t124 -295q0 -46 -30.5 -76.5t-76.5 -30.5t-76.5 30.5t-30.5 74.5t-16.5 81.5t-44.5 65.5q-62 60 -143 60q-84 0 -144.5 -60.5t-60.5 -144.5q0 -85 59.5 -144.5t145.5 -59.5t162 -33t133 -90q123 -123 123 -297t-139 -309q139 -135 139 -310q0 -171 -124 -295t-294 -124 q-173 0 -296 124q-122 124 -122 295zM289 562q0 -85 61 -146q58 -58 144 -58q84 0 143 59q61 61 61 145q0 83 -61 144q-59 59 -143 59q-42 0 -79.5 -15.5t-64.5 -43.5q-61 -62 -61 -144z"/>
            <glyph unicode="&#xa8;" horiz-adv-x="960"
                   d="M132 1359q0 51 36 87t87 36t87 -36t36 -87t-36 -87t-87 -36t-87 36t-36 87zM587 1359q0 51 36 87t87 36t87 -36t36 -87t-36 -87t-87 -36t-87 36t-36 87z"/>
            <glyph unicode="&#xa9;" horiz-adv-x="1760"
                   d="M86 797.5q0 332.5 233 567t566 234.5t565 -235q235 -232 235 -564.5t-235.5 -566t-563.5 -233.5q-333 0 -567 234q-233 231 -233 563.5zM247 803q0 -267 185.5 -451.5t450.5 -184.5q268 0 451.5 186.5t183.5 449t-186 448.5t-449.5 186t-449.5 -186t-186 -448zM328 801 q0 229 163 393q161 163 381.5 163t372.5 -135q36 -32 36 -78t-29 -75.5t-60 -29.5q-57 0 -94 33q-87 78 -215 78q-143 0 -247 -104q-102 -102 -102 -244t102 -246q101 -102 247 -102q128 0 227 85q22 21 66 21.5t73 -30t29 -62.5q0 -58 -33 -87q-151 -135 -371.5 -135 t-383 163t-162.5 392z"/>
            <glyph unicode="&#xaa;" horiz-adv-x="960"
                   d="M76 1167q0 167 120 288q119 121 288 121q168 0 288 -121q120 -122 120 -288v-303q0 -44 -22 -66q-39 -39 -92.5 -39t-82.5 57q-94 -57 -194.5 -57t-175 32.5t-129.5 88.5q-120 121 -120 287zM284 1167q0 -83 58 -141t142 -58q81 0 140 59t59 140q0 83 -59 141 q-61 59 -140 59q-41 0 -77.5 -16t-63.5 -43q-59 -59 -59 -141z"/>
            <glyph unicode="&#xab;" horiz-adv-x="960"
                   d="M76 558.5q0 24.5 13 50.5l223 446q28 64 96 64q45 0 74.5 -29.5t29.5 -64.5t-9 -55l-205 -410l205 -412q9 -19 9 -42t-8 -42t-22 -34q-29 -30 -66 -30q-74 0 -104 64l-221 441q-15 29 -15 53.5zM458 558.5q0 24.5 13 50.5l223 446q28 64 96 64q45 0 74.5 -29.5 t29.5 -64.5t-9 -55l-205 -410l205 -412q9 -19 9 -42t-8 -42t-22 -34q-29 -30 -66 -30q-74 0 -104 64l-221 441q-15 29 -15 53.5z"/>
            <glyph unicode="&#xac;" horiz-adv-x="1120"
                   d="M78 1004q0 33 8 52t22 34q29 30 74 30h759q68 0 97 -64q8 -19 8 -40v-304q0 -42 -22 -66q-38 -39 -71 -39t-52 8t-33 23q-31 30 -31 74v199h-655q-45 0 -74.5 30t-29.5 63z"/>
            <glyph unicode="&#xad;" horiz-adv-x="800"
                   d="M74 560q0 45 29.5 74.5t74.5 29.5h456q45 0 74.5 -29.5t29.5 -74.5t-29.5 -74.5t-74.5 -29.5h-456q-45 0 -74.5 29.5t-29.5 74.5z"/>
            <glyph unicode="&#xae;" horiz-adv-x="1760"
                   d="M86 798.5q0 333.5 233.5 568.5t567 235t565.5 -236q236 -232 236 -565t-236 -567t-564 -234q-335 0 -568 235q-234 230 -234 563.5zM252 804q0 -263 184.5 -447.5t448.5 -184.5t447.5 185.5t183.5 446.5t-185 446t-447 185t-447 -185t-185 -446zM560 364v896 q0 33 23 55.5t55 22.5h250q132 0 230 -96q97 -96 97 -231q0 -182 -164 -284l199 -319q15 -22 15 -41t-6.5 -33.5t-16.5 -25.5q-24 -23 -61.5 -23t-61.5 39l-224 360h-178v-320q0 -32 -23.5 -55.5t-47.5 -23.5t-38 6.5t-24 16.5q-24 24 -24 56zM717 840h171q70 0 120.5 50.5 t50.5 120.5q0 71 -51 120q-51 50 -120 50h-171v-341z"/>
            <glyph unicode="&#xaf;" horiz-adv-x="1120"
                   d="M78 1775q0 45 29.5 74.5t74.5 29.5h759q44 0 74.5 -29.5t30.5 -74.5t-30.5 -74.5t-74.5 -29.5h-759q-45 0 -74.5 29.5t-29.5 74.5z"/>
            <glyph unicode="&#xb0;" horiz-adv-x="960"
                   d="M76 1167q0 167 120 288q119 121 288 121q168 0 288 -121q120 -122 120 -287q0 -84 -32.5 -158t-87.5 -130q-120 -121 -288 -121q-169 0 -288 121q-120 121 -120 287zM284 1167q0 -83 58 -141t142 -58q81 0 140 59t59 140q0 83 -59 141q-61 59 -140 59q-41 0 -77.5 -16 t-63.5 -43q-59 -59 -59 -141z"/>
            <glyph unicode="&#xb1;" horiz-adv-x="1120"
                   d="M78 104q0 45 29.5 74.5t74.5 29.5h760q45 0 74.5 -29.5t29.5 -74.5t-29.5 -74.5t-74.5 -29.5h-760q-45 0 -74.5 29.5t-29.5 74.5zM78 788q0 45 29.5 74.5t74.5 29.5h275v275q0 43 30.5 74t75 31t74 -30.5t29.5 -74.5v-275h275q43 0 74 -30.5t31 -74t-31 -74t-74 -30.5 h-275v-275q0 -45 -29.5 -74.5t-74.5 -29.5t-75 29.5t-30 74.5v275h-275q-45 0 -74.5 30t-29.5 75z"/>
            <glyph unicode="&#xb2;" horiz-adv-x="640"
                   d="M72 856.5q0 28.5 17 46.5l321 355q37 37 37 74.5t-10 60t-27 39.5q-36 36 -73 36t-59 -10t-39 -26q-36 -35 -36 -74t-19.5 -58.5t-47 -19.5t-46 19.5t-18.5 59t20.5 86t55.5 81.5q74 74 178 74t178 -75q75 -77 75 -180q0 -102 -74 -178l-218 -244h227q26 0 45.5 -20 t19.5 -47.5t-19.5 -46t-45.5 -18.5h-376q-29 0 -47.5 18.5t-18.5 47z"/>
            <glyph unicode="&#xb3;" horiz-adv-x="640"
                   d="M72 1042q0 29 18.5 47.5t46 18.5t47.5 -18.5t20 -45.5t9 -49.5t25 -38.5q37 -37 76.5 -37t61.5 9.5t38 26.5q36 37 36 74.5t-10 60t-26 38.5q-37 37 -76 37t-58 18.5t-19 46t19 48t51 20.5t56.5 24.5t24.5 61t-25 60.5t-51 24t-41.5 -7t-27.5 -19q-25 -23 -25 -54.5 t-20 -51t-47.5 -19.5t-46 19.5t-18.5 55.5t17.5 76t47.5 70q65 63 153 63t152 -66q65 -66 65 -170q0 -61 -53 -127q46 -33 68.5 -87.5t22.5 -107.5t-20 -99.5t-55 -81.5q-76 -76 -180 -76q-106 0 -181 75t-75 181z"/>
            <glyph unicode="&#xb4;" horiz-adv-x="560"
                   d="M104 1297q0 44 26 72l200 199q32 31 75.5 31t73 -30.5t29.5 -75t-28 -72.5l-200 -199q-28 -28 -72.5 -28t-74 29.5t-29.5 73.5z"/>
            <glyph unicode="&#xb5;" horiz-adv-x="1200"
                   d="M79 -374v1390q0 42 22 65q37 39 82 39q68 0 97 -64q8 -19 8 -40v-494q0 -130 91.5 -221.5t221.5 -91.5q129 0 221 92t92 221v494q0 42 22 65q37 39 82 39q68 0 96 -64q9 -19 9 -40v-912q0 -41 -23 -65q-37 -39 -82 -39t-74 30t-30 73q-132 -103 -312.5 -103t-313.5 103 v-477q0 -42 -22 -66q-38 -39 -83 -39t-74.5 30t-29.5 75z"/>
            <glyph unicode="&#xb6;" horiz-adv-x="1120"
                   d="M78 1190q0 167 120 288q119 121 288 121h455q43 0 65 -23q40 -39 40 -78.5t-21 -67t-55 -36.5v-1290q0 -41 -22 -65q-57 -59 -123 -31q-64 27 -64 96v1286h-95v-1286q0 -42 -22 -65q-37 -39 -82 -39q-44 0 -66 22q-39 39 -39 82v679q-158 10 -269 129q-110 120 -110 278z "/>
            <glyph unicode="&#xb7;" horiz-adv-x="400"
                   d="M59 750q0 59 41.5 100.5t100.5 41.5t100.5 -41.5t41.5 -100.5t-41.5 -100.5t-100.5 -41.5t-100.5 41.5t-41.5 100.5z"/>
            <glyph unicode="&#xb8;" horiz-adv-x="640"
                   d="M72 -311q0 47 29.5 77.5t66.5 31t64 -16.5l72 -45q12 -6 24 -6q47 0 47 22t-45 23.5t-81.5 35t-23.5 85.5l40 139q6 23 28 47q31 28 74.5 28t73 -30.5t29.5 -74.5q0 -11 -3 -23l-9 -35q126 -74 126 -198q0 -97 -75 -162.5t-181 -65.5q-64 0 -123 31l-87 53q-46 37 -46 84 z"/>
            <glyph unicode="&#xb9;" horiz-adv-x="480"
                   d="M107 1490q0 49 43 68l115 39q10 3 28.5 3t39 -19t20.5 -48v-678q0 -29 -20.5 -48t-46.5 -19t-46 19t-20 48v588l-22 -9q-9 -4 -31.5 -4t-41 18.5t-18.5 41.5z"/>
            <glyph unicode="&#xba;" horiz-adv-x="640"
                   d="M72 1194q0 294 146 378q48 28 108 28t107 -27.5t80 -80.5q68 -108 68 -298q0 -292 -148 -378q-47 -28 -107 -28t-107.5 27.5t-80.5 80.5q-66 107 -66 298zM204 1194q0 -176 64 -249l-2 1q24 -25 58 -25t57 21t38 58q30 74 30 194q0 178 -63 249v-1q-24 26 -56.5 26 t-55.5 -21.5t-38 -58.5q-32 -77 -32 -194z"/>
            <glyph unicode="&#xbb;" horiz-adv-x="960"
                   d="M77 106q0 23 9 42l205 412l-205 410q-9 20 -9 55t29.5 64.5t67.5 29.5q75 0 103 -64l223 -446q13 -26 13 -50.5t-15 -53.5l-221 -441q-30 -64 -96 -64q-69 0 -96 64q-8 19 -8 42zM459 106q0 23 9 42l205 412l-205 410q-9 20 -9 55t29.5 64.5t67.5 29.5q75 0 103 -64 l223 -446q13 -26 13 -50.5t-15 -53.5l-221 -441q-30 -64 -96 -64q-69 0 -96 64q-8 19 -8 42z"/>
            <glyph unicode="&#xbc;" horiz-adv-x="1440"
                   d="M82 1475q0 54 43 72l141 48q13 5 35.5 5t44 -21.5t21.5 -52.5v-822q0 -31 -21.5 -52.5t-53 -21.5t-53 21.5t-21.5 52.5v717l-36 -10q-14 -5 -36 -5t-43 21t-21 48zM158 110.5q0 27.5 15 49.5l932 1398q28 42 77.5 42t80.5 -31t31 -67.5t-16 -63.5l-926 -1387 q-36 -51 -90 -51q-69 0 -96 64q-8 19 -8 46.5zM659 297.5q0 27.5 14 47.5l409 592q22 31 57.5 31t56.5 -21t21 -53v-518h63q31 0 52.5 -21t21.5 -53t-21.5 -53t-52.5 -21h-63v-154q0 -32 -21 -53t-53 -21t-53 21t-21 53v154h-336q-32 0 -53 21t-21 48.5zM875 376h194v281z "/>
            <glyph unicode="&#xbd;" horiz-adv-x="1600"
                   d="M82 1475q0 54 43 72l141 48q13 5 35.5 5t44 -21.5t21.5 -52.5v-822q0 -31 -21.5 -52.5t-53 -21.5t-53 21.5t-21.5 52.5v717l-36 -10q-14 -5 -36 -5t-43 21t-21 48zM158 110.5q0 27.5 15 49.5l932 1398q28 42 77.5 42t80.5 -31t31 -67.5t-16 -63.5l-926 -1387 q-36 -51 -90 -51q-69 0 -96 64q-8 19 -8 46.5zM903 72q0 30 21 53l389 431q46 46 46 111q0 63 -46 109q-45 45 -92.5 45t-75.5 -12t-49 -33q-45 -45 -45 -109q0 -32 -21 -53t-53 -21t-53 21t-21 68t24 102t65 96q89 89 213 89q123 0 213 -90t90 -212q0 -116 -89 -213 l-275 -306h289q30 0 52.5 -21t22.5 -53t-22.5 -53t-52.5 -21h-456q-32 0 -53 21t-21 51z"/>
            <glyph unicode="&#xbe;" horiz-adv-x="1600"
                   d="M84 935q0 32 21 53t53 21t53 -21t21 -53q0 -64 44 -109q44 -43 109 -43q62 0 107 45t45 92.5t-12 75.5t-33 48.5t-48.5 32.5t-59 12t-52.5 21t-21 51.5t21 52.5t48 22t46.5 8.5t34.5 23.5q32 32 32 65.5t-9.5 53t-24.5 33.5q-33 32 -64.5 32t-51 -8.5t-34.5 -23.5 q-32 -32 -32 -61.5t-6 -43t-17 -23.5q-23 -22 -52.5 -22t-51 21.5t-21.5 63t20.5 88t54.5 81.5q75 76 181 76t180.5 -76.5t74.5 -177.5t-67 -174q62 -64 80 -101q33 -68 33 -132.5t-24 -119t-66 -95.5q-89 -90 -211 -90q-123 0 -212 89t-89 212zM312 110.5q0 27.5 15 49.5 l932 1398q28 42 77.5 42t80.5 -31t31 -67.5t-16 -63.5l-926 -1387q-36 -51 -90 -51q-69 0 -96 64q-8 19 -8 46.5zM812 297.5q0 27.5 14 47.5l409 592q22 31 57.5 31t56.5 -21t21 -53v-518h63q31 0 52.5 -21t21.5 -53t-21.5 -53t-52.5 -21h-63v-154q0 -32 -21 -53t-53 -21 t-53 21t-21 53v154h-336q-32 0 -53 21t-21 48.5zM1028 376h194v281z"/>
            <glyph unicode="&#xbf;" horiz-adv-x="1120"
                   d="M78 4q0 45 29.5 75t63 30t52.5 -8t33 -23q31 -32 31 -82t21.5 -100t59 -87t87.5 -58.5t106.5 -21.5t106.5 22t88 59q81 82 81 194t-80 195l-157 146q-143 143 -143 343q0 45 30 74.5t75 29.5t74.5 -29.5t29.5 -74.5q0 -115 80 -195l157 -145q143 -146 143 -344 q0 -197 -143 -340q-144 -144 -341 -144q-199 0 -341 142q-143 143 -143 342zM420 977q0 59 41.5 100.5t100.5 41.5t100.5 -41.5t41.5 -100.5t-41.5 -100.5t-100.5 -41.5t-100.5 41.5t-41.5 100.5z"/>
            <glyph unicode="&#xc0;" horiz-adv-x="1440"
                   d="M77 96q0 34 11 58l534 1374q32 72 102 72t100 -72l536 -1379q8 -20 8 -53.5t-31 -64.5t-75 -31t-67 23.5t-31 41.5l-185 475h-512l-186 -475q-8 -18 -31.5 -41.5t-67.5 -23.5t-74.5 31t-30.5 65zM444 1973.5q0 44.5 29.5 75t73 30.5t75.5 -31l200 -199q26 -28 26 -72 t-29.5 -73.5t-74 -29.5t-72.5 28l-200 199q-28 28 -28 72.5zM549 752h348l-174 449z"/>
            <glyph unicode="&#xc1;" horiz-adv-x="1440"
                   d="M77 96q0 34 11 58l534 1374q32 72 102 72t100 -72l536 -1379q8 -20 8 -53.5t-31 -64.5t-75 -31t-67 23.5t-31 41.5l-185 475h-512l-186 -475q-8 -18 -31.5 -41.5t-67.5 -23.5t-74.5 31t-30.5 65zM549 752h348l-174 449zM611 1777q0 44 26 72l200 199q32 31 75.5 31 t73 -30.5t29.5 -75t-28 -72.5l-200 -199q-28 -28 -72.5 -28t-74 29.5t-29.5 73.5z"/>
            <glyph unicode="&#xc2;" horiz-adv-x="1440"
                   d="M77 96q0 34 11 58l534 1374q32 72 102 72t100 -72l536 -1379q8 -20 8 -53.5t-31 -64.5t-75 -31t-67 23.5t-31 41.5l-185 475h-512l-186 -475q-8 -18 -31.5 -41.5t-67.5 -23.5t-74.5 31t-30.5 65zM384 1827q0 49 49 86l229 151q25 16 54 16t54 -16l228 -151 q50 -38 50 -86.5t-29.5 -78t-69.5 -29.5t-71 22l-162 107l-162 -107q-30 -22 -70.5 -22t-70 29.5t-29.5 78.5zM549 752h348l-174 449z"/>
            <glyph unicode="&#xc3;" horiz-adv-x="1440"
                   d="M77 96q0 34 11 58l534 1374q32 72 102 72t100 -72l536 -1379q8 -20 8 -53.5t-31 -64.5t-75 -31t-67 23.5t-31 41.5l-185 475h-512l-186 -475q-8 -18 -31.5 -41.5t-67.5 -23.5t-74.5 31t-30.5 65zM304.5 1884.5q0.5 44.5 30.5 73t69.5 28.5t84.5 -33t86 -33t71 27 q87 82 219 82q88 0 149 -33.5t88.5 -65.5t27.5 -74.5t-30.5 -72t-68.5 -29.5t-85.5 33t-86 33t-71.5 -27q-90 -82 -219 -82q-89 0 -150 33t-88 64.5t-26.5 76zM549 752h348l-174 449z"/>
            <glyph unicode="&#xc4;" horiz-adv-x="1440"
                   d="M77 96q0 34 11 58l534 1374q32 72 102 72t100 -72l536 -1379q8 -20 8 -53.5t-31 -64.5t-75 -31t-67 23.5t-31 41.5l-185 475h-512l-186 -475q-8 -18 -31.5 -41.5t-67.5 -23.5t-74.5 31t-30.5 65zM373 1839q0 51 36 87t87 36t87 -36t36 -87t-36 -87t-87 -36t-87 36t-36 87 zM549 752h348l-174 449zM828 1839q0 51 36 87t87 36t87 -36t36 -87t-36 -87t-87 -36t-87 36t-36 87z"/>
            <glyph unicode="&#xc5;" horiz-adv-x="1440"
                   d="M77 96q0 34 11 58l534 1374q32 72 102 72t100 -72l536 -1379q8 -20 8 -53.5t-31 -64.5t-75 -31t-67 23.5t-31 41.5l-185 475h-512l-186 -475q-8 -18 -31.5 -41.5t-67.5 -23.5t-74.5 31t-30.5 65zM499 1859q0 90 65 155t155 65q89 0 155 -66q64 -64 64 -155 q0 -44 -17.5 -84t-47.5 -70q-65 -65 -154 -65q-91 0 -155 64q-65 65 -65 156zM549 752h348l-174 449zM651 1858.5q0 -27.5 20 -47t47.5 -19.5t47 19.5t19.5 47t-19.5 47.5t-47 20t-47.5 -20t-20 -47.5z"/>
            <glyph unicode="&#xc6;" horiz-adv-x="1760"
                   d="M80 98q0 37 15 61l772 1391q27 50 90 50h617q45 0 68 -22q38 -39 38 -73t-8 -53t-22 -34q-31 -30 -76 -30h-511v-559h357q45 0 68 -23q38 -38 38 -72t-8 -53t-22 -33q-31 -31 -76 -31h-357v-405h511q45 0 68 -22q38 -39 38 -73t-8 -53t-22 -34q-31 -30 -76 -30h-617 q-45 0 -67 22q-39 39 -39 84v511h-259l-317 -570q-32 -47 -89 -47q-45 0 -68 22q-38 39 -38 76zM710 829h141v255z"/>
            <glyph unicode="&#xc7;" horiz-adv-x="1480"
                   d="M78 799.5q0 331.5 234.5 566t565.5 234.5q284 0 513 -187q28 -27 28 -61.5t-8 -53.5t-23 -34q-30 -30 -72 -30t-97 45t-146.5 77t-194.5 32q-244 0 -416 -172t-172 -416.5t171.5 -416t416.5 -171.5q209 0 368 129q50 34 103 11q65 -30 65 -98q0 -42 -33 -76 q-223 -178 -503 -178q-332 0 -566 234t-234 565.5zM498 -311q0 47 29.5 77.5t66.5 31t64 -16.5l72 -45q12 -6 24 -6q47 0 47 22t-45 23.5t-81.5 35t-23.5 85.5l40 139q6 23 28 47q31 28 74.5 28t73 -30.5t29.5 -74.5q0 -11 -3 -23l-9 -35q126 -74 126 -198q0 -97 -75 -162.5 t-181 -65.5q-64 0 -123 31l-87 53q-46 37 -46 84z"/>
            <glyph unicode="&#xc8;"
                   d="M77 106v1388q0 45 22 68q39 38 84 38h925q44 0 75 -31t31 -75t-31 -75t-75 -31h-819v-482h588q44 0 75 -31t31 -75t-31 -75t-75 -31h-588v-482h819q44 0 75 -31t31 -75t-31 -75t-75 -31h-925q-45 0 -68 22q-38 39 -38 84zM366 1973.5q0 44.5 29.5 75t73 30.5t75.5 -31 l200 -199q26 -28 26 -72t-29.5 -73.5t-74 -29.5t-72.5 28l-200 199q-28 28 -28 72.5z"/>
            <glyph unicode="&#xc9;"
                   d="M77 106v1388q0 45 22 68q39 38 84 38h925q44 0 75 -31t31 -75t-31 -75t-75 -31h-819v-482h588q44 0 75 -31t31 -75t-31 -75t-75 -31h-588v-482h819q44 0 75 -31t31 -75t-31 -75t-75 -31h-925q-45 0 -68 22q-38 39 -38 84zM533 1777q0 44 26 72l200 199q32 31 75.5 31 t73 -30.5t29.5 -75t-28 -72.5l-200 -199q-28 -28 -72.5 -28t-74 29.5t-29.5 73.5z"/>
            <glyph unicode="&#xca;"
                   d="M77 106v1388q0 45 22 68q39 38 84 38h925q44 0 75 -31t31 -75t-31 -75t-75 -31h-819v-482h588q44 0 75 -31t31 -75t-31 -75t-75 -31h-588v-482h819q44 0 75 -31t31 -75t-31 -75t-75 -31h-925q-45 0 -68 22q-38 39 -38 84zM304 1827q0 49 49 86l229 151q25 16 54 16 t54 -16l228 -151q50 -38 50 -86.5t-29.5 -78t-69.5 -29.5t-71 22l-162 107l-162 -107q-30 -22 -70.5 -22t-70 29.5t-29.5 78.5z"/>
            <glyph unicode="&#xcb;"
                   d="M77 106v1388q0 45 22 68q39 38 84 38h925q44 0 75 -31t31 -75t-31 -75t-75 -31h-819v-482h588q44 0 75 -31t31 -75t-31 -75t-75 -31h-588v-482h819q44 0 75 -31t31 -75t-31 -75t-75 -31h-925q-45 0 -68 22q-38 39 -38 84zM295 1839q0 51 36 87t87 36t87 -36t36 -87 t-36 -87t-87 -36t-87 36t-36 87zM750 1839q0 51 36 87t87 36t87 -36t36 -87t-36 -87t-87 -36t-87 36t-36 87z"/>
            <glyph unicode="&#xcc;" horiz-adv-x="480"
                   d="M1 1973.5q0 44.5 29.5 75t73 30.5t75.5 -31l200 -199q26 -28 26 -72t-29.5 -73.5t-74 -29.5t-72.5 28l-200 199q-28 28 -28 72.5zM141 106v1388q0 44 31 75t75 31t75 -31t31 -75v-1388q0 -44 -31 -75t-75 -31t-75 31t-31 75z"/>
            <glyph unicode="&#xcd;" horiz-adv-x="480"
                   d="M76 1777q0 44 26 72l200 199q32 31 75.5 31t73 -30.5t29.5 -75t-28 -72.5l-200 -199q-28 -28 -72.5 -28t-74 29.5t-29.5 73.5zM141 106v1388q0 44 31 75t75 31t75 -31t31 -75v-1388q0 -44 -31 -75t-75 -31t-75 31t-31 75z"/>
            <glyph unicode="&#xce;" horiz-adv-x="480"
                   d="M-79 1827q0 49 49 86l229 151q25 16 54 16t54 -16l228 -151q50 -38 50 -86.5t-29.5 -78t-69.5 -29.5t-71 22l-162 107l-162 -107q-30 -22 -70.5 -22t-70 29.5t-29.5 78.5zM141 106v1388q0 44 31 75t75 31t75 -31t31 -75v-1388q0 -44 -31 -75t-75 -31t-75 31t-31 75z"/>
            <glyph unicode="&#xcf;" horiz-adv-x="480"
                   d="M-100 1839q0 51 36 87t87 36t87 -36t36 -87t-36 -87t-87 -36t-87 36t-36 87zM141 106v1388q0 44 31 75t75 31t75 -31t31 -75v-1388q0 -44 -31 -75t-75 -31t-75 31t-31 75zM355 1839q0 51 36 87t87 36t87 -36t36 -87t-36 -87t-87 -36t-87 36t-36 87z"/>
            <glyph unicode="&#xd0;" horiz-adv-x="1520"
                   d="M0 788.5q0 33.5 8 53t22 34.5q31 30 76 30h124v588q0 68 65 98q19 8 41 8h309q330 0 565 -235t235 -565.5t-234.5 -565t-565.5 -234.5h-309q-42 0 -66 22q-40 39 -40 84v588h-124q-45 0 -68 22q-38 39 -38 72.5zM442 212h203q243 0 415 172q173 173 173 415.5t-173 415.5 t-415 173h-203v-482h280q45 0 75.5 -30.5t30.5 -64.5t-8 -53t-22 -34q-31 -30 -76 -30h-280v-482z"/>
            <glyph unicode="&#xd1;" horiz-adv-x="1440"
                   d="M77 106v1388q0 45 23 68q38 38 84 38t81 -39l892 -1147v1080q0 44 31 75t75 31t75 -31t31 -75v-1388q0 -45 -23 -68q-38 -38 -84 -38t-80 37l-893 1147v-1078q0 -44 -31 -75t-75 -31t-75 31t-31 75zM304.5 1884.5q0.5 44.5 30.5 73t69.5 28.5t84.5 -33t86 -33t71 27 q87 82 219 82q88 0 149 -33.5t88.5 -65.5t27.5 -74.5t-30.5 -72t-68.5 -29.5t-85.5 33t-86 33t-71.5 -27q-90 -82 -219 -82q-89 0 -150 33t-88 64.5t-26.5 76z"/>
            <glyph unicode="&#xd2;" horiz-adv-x="1760"
                   d="M80 799.5q0 331.5 234.5 566t565 234.5t565.5 -235t235 -565.5t-234.5 -565t-566 -234.5t-565.5 234t-234 565.5zM292 799.5q0 -243.5 172 -415.5t416 -172t416 172t172 415.5t-172.5 416t-415.5 172.5t-416 -173q-172 -172 -172 -415.5zM684 1973.5q0 44.5 29.5 75 t73 30.5t75.5 -31l200 -199q26 -28 26 -72t-29.5 -73.5t-74 -29.5t-72.5 28l-200 199q-28 28 -28 72.5z"/>
            <glyph unicode="&#xd3;" horiz-adv-x="1760"
                   d="M80 799.5q0 331.5 234.5 566t565 234.5t565.5 -235t235 -565.5t-234.5 -565t-566 -234.5t-565.5 234t-234 565.5zM292 799.5q0 -243.5 172 -415.5t416 -172t416 172t172 415.5t-172.5 416t-415.5 172.5t-416 -173q-172 -172 -172 -415.5zM701 1777q0 44 26 72l200 199 q32 31 75.5 31t73 -30.5t29.5 -75t-28 -72.5l-200 -199q-28 -28 -72.5 -28t-74 29.5t-29.5 73.5z"/>
            <glyph unicode="&#xd4;" horiz-adv-x="1760"
                   d="M80 799.5q0 331.5 234.5 566t565 234.5t565.5 -235t235 -565.5t-234.5 -565t-566 -234.5t-565.5 234t-234 565.5zM292 799.5q0 -243.5 172 -415.5t416 -172t416 172t172 415.5t-172.5 416t-415.5 172.5t-416 -173q-172 -172 -172 -415.5zM544 1827q0 49 49 86l229 151 q25 16 54 16t54 -16l228 -151q50 -38 50 -86.5t-29.5 -78t-69.5 -29.5t-71 22l-162 107l-162 -107q-30 -22 -70.5 -22t-70 29.5t-29.5 78.5z"/>
            <glyph unicode="&#xd5;" horiz-adv-x="1760"
                   d="M80 799.5q0 331.5 234.5 566t565 234.5t565.5 -235t235 -565.5t-234.5 -565t-566 -234.5t-565.5 234t-234 565.5zM292 799.5q0 -243.5 172 -415.5t416 -172t416 172t172 415.5t-172.5 416t-415.5 172.5t-416 -173q-172 -172 -172 -415.5zM464.5 1884.5q0.5 44.5 30.5 73 t69.5 28.5t84.5 -33t86 -33t71 27q87 82 219 82q88 0 149 -33.5t88.5 -65.5t27.5 -74.5t-30.5 -72t-68.5 -29.5t-85.5 33t-86 33t-71.5 -27q-90 -82 -219 -82q-89 0 -150 33t-88 64.5t-26.5 76z"/>
            <glyph unicode="&#xd6;" horiz-adv-x="1760"
                   d="M80 799.5q0 331.5 234.5 566t565 234.5t565.5 -235t235 -565.5t-234.5 -565t-566 -234.5t-565.5 234t-234 565.5zM292 799.5q0 -243.5 172 -415.5t416 -172t416 172t172 415.5t-172.5 416t-415.5 172.5t-416 -173q-172 -172 -172 -415.5zM533 1839q0 51 36 87t87 36 t87 -36t36 -87t-36 -87t-87 -36t-87 36t-36 87zM988 1839q0 51 36 87t87 36t87 -36t36 -87t-36 -87t-87 -36t-87 36t-36 87z"/>
            <glyph unicode="&#xd7;" horiz-adv-x="960"
                   d="M76 408.5q0 45.5 28 72.5l232 231l-232 231q-28 31 -28 62.5t8 50.5t22 34q29 30 73.5 30t75.5 -31l229 -229l229 229q31 31 63.5 31t51.5 -8t34 -22q30 -31 30 -73t-29 -74l-231 -231l231 -231q29 -31 29 -63t-8 -51t-22 -33q-32 -30 -75.5 -30t-71.5 27l-231 233 l-233 -233q-28 -27 -72 -27t-73.5 29.5t-29.5 75z"/>
            <glyph unicode="&#xd8;" horiz-adv-x="1760"
                   d="M80 105.5q0 44.5 28 72.5l136 136q-164 207 -164 486q0 331 234.5 565.5t565.5 234.5q279 0 486 -164l133 133q31 31 64 31t52.5 -8t34.5 -22q30 -31 30 -73t-24 -70l-140 -141q164 -207 164 -486q0 -331 -234.5 -565.5t-565.5 -234.5q-279 0 -486 164l-133 -134 q-32 -30 -65 -30t-52 8t-34 22q-30 31 -30 75.5zM292 800q0 -189 103 -334l820 819q-146 103 -335 103q-243 0 -416 -173q-172 -172 -172 -415zM546 315q145 -103 334 -103q244 0 416 172t172 416q0 185 -104 334z"/>
            <glyph unicode="&#xd9;"
                   d="M76 569v925q0 44 31 75t75 31t75 -31t31 -75v-925q0 -146 104 -251q104 -106 252 -106q149 0 252 105q105 106 105 252v925q0 44 31 75t75 31t75 -31t31 -75v-925q0 -152 -78 -285q-116 -200 -341 -264q-72 -20 -150 -20q-236 0 -402 167t-166 402zM364 1973.5 q0 44.5 29.5 75t73 30.5t75.5 -31l200 -199q26 -28 26 -72t-29.5 -73.5t-74 -29.5t-72.5 28l-200 199q-28 28 -28 72.5z"/>
            <glyph unicode="&#xda;"
                   d="M76 569v925q0 44 31 75t75 31t75 -31t31 -75v-925q0 -146 104 -251q104 -106 252 -106q149 0 252 105q105 106 105 252v925q0 44 31 75t75 31t75 -31t31 -75v-925q0 -152 -78 -285q-116 -200 -341 -264q-72 -20 -150 -20q-236 0 -402 167t-166 402zM531 1777q0 44 26 72 l200 199q32 31 75.5 31t73 -30.5t29.5 -75t-28 -72.5l-200 -199q-28 -28 -72.5 -28t-74 29.5t-29.5 73.5z"/>
            <glyph unicode="&#xdb;"
                   d="M76 569v925q0 44 31 75t75 31t75 -31t31 -75v-925q0 -146 104 -251q104 -106 252 -106q149 0 252 105q105 106 105 252v925q0 44 31 75t75 31t75 -31t31 -75v-925q0 -152 -78 -285q-116 -200 -341 -264q-72 -20 -150 -20q-236 0 -402 167t-166 402zM304 1827q0 49 49 86 l229 151q25 16 54 16t54 -16l228 -151q50 -38 50 -86.5t-29.5 -78t-69.5 -29.5t-71 22l-162 107l-162 -107q-30 -22 -70.5 -22t-70 29.5t-29.5 78.5z"/>
            <glyph unicode="&#xdc;"
                   d="M76 569v925q0 44 31 75t75 31t75 -31t31 -75v-925q0 -146 104 -251q104 -106 252 -106q149 0 252 105q105 106 105 252v925q0 44 31 75t75 31t75 -31t31 -75v-925q0 -152 -78 -285q-116 -200 -341 -264q-72 -20 -150 -20q-236 0 -402 167t-166 402zM293 1839q0 51 36 87 t87 36t87 -36t36 -87t-36 -87t-87 -36t-87 36t-36 87zM748 1839q0 51 36 87t87 36t87 -36t36 -87t-36 -87t-87 -36t-87 36t-36 87z"/>
            <glyph unicode="&#xdd;"
                   d="M76 1499q0 39 31 70t81 31t80 -44l376 -563l376 563q31 44 81 44t80.5 -31t30.5 -71t-16 -64l-446 -666v-662q0 -44 -31 -75t-74.5 -31t-75 31t-31.5 75v662l-445 666q-17 26 -17 65zM531 1777q0 44 26 72l200 199q32 31 75.5 31t73 -30.5t29.5 -75t-28 -72.5l-200 -199 q-28 -28 -72.5 -28t-74 29.5t-29.5 73.5z"/>
            <glyph unicode="&#xde;"
                   d="M76 106v1388q0 45 22 68q39 38 72.5 38t53 -8t34.5 -22q30 -31 30 -76v-202h434q201 0 346 -145t145 -347t-146 -348q-144 -144 -345 -144h-434v-202q0 -45 -22 -68q-39 -38 -73 -38t-53 8t-34 22q-30 31 -30 76zM288 520h434q117 0 198 82q81 83 81 198q0 116 -82 198 t-197 82h-434v-560z"/>
            <glyph unicode="&#xdf;" horiz-adv-x="1120"
                   d="M78 105v1078q0 170 121 293q121 122 293 122q170 0 291 -122q122 -124 122 -284.5t-95 -271.5q-17 -26 -17 -70t46.5 -69t89 -65t71.5 -88q60 -99 60 -199t-33 -175.5t-89 -131.5q-124 -122 -294 -122t-291 122q-34 33 -34 65.5t8.5 52t22.5 34.5q29 30 73 30t80 -32 q60 -60 143 -60q82 0 142 60t60 143.5t-59 142.5v-1q-29 25 -66 50t-55 44q-90 88 -90 207t77 207q38 47 38 103.5t-16 93.5t-44 64q-61 60 -141 60q-85 0 -143.5 -58.5t-58.5 -144.5v-1078q0 -41 -23 -65q-38 -40 -72 -40t-53 8t-34 23q-30 32 -30 74z"/>
            <glyph unicode="&#xe0;"
                   d="M80 560q0 232 164 396t395 164t396 -164t165 -396v-456q0 -43 -30.5 -73.5t-74 -30.5t-74 30.5t-30.5 73.5v20q-155 -124 -351 -124q-232 0 -396 164t-164 396zM289 560q0 -144 102 -248q102 -103 249 -103q146 0 248 104q103 104 103 247t-103 247q-102 104 -248 104 q-74 0 -138 -28t-111 -75q-102 -104 -102 -248zM402 1493.5q0 44.5 29.5 75t73 30.5t75.5 -31l200 -199q26 -28 26 -72t-29.5 -73.5t-74 -29.5t-72.5 28l-200 199q-28 28 -28 72.5z"/>
            <glyph unicode="&#xe1;"
                   d="M80 560q0 232 164 396t395 164t396 -164t165 -396v-456q0 -43 -30.5 -73.5t-74 -30.5t-74 30.5t-30.5 73.5v20q-155 -124 -351 -124q-232 0 -396 164t-164 396zM289 560q0 -144 102 -248q102 -103 249 -103q146 0 248 104q103 104 103 247t-103 247q-102 104 -248 104 q-74 0 -138 -28t-111 -75q-102 -104 -102 -248zM480 1297q0 44 26 72l200 199q32 31 75.5 31t73 -30.5t29.5 -75t-28 -72.5l-200 -199q-28 -28 -72.5 -28t-74 29.5t-29.5 73.5z"/>
            <glyph unicode="&#xe2;"
                   d="M80 560q0 232 164 396t395 164t396 -164t165 -396v-456q0 -43 -30.5 -73.5t-74 -30.5t-74 30.5t-30.5 73.5v20q-155 -124 -351 -124q-232 0 -396 164t-164 396zM289 560q0 -144 102 -248q102 -103 249 -103q146 0 248 104q103 104 103 247t-103 247q-102 104 -248 104 q-74 0 -138 -28t-111 -75q-102 -104 -102 -248zM304 1347q0 49 49 86l229 151q25 16 54 16t54 -16l228 -151q50 -38 50 -86.5t-29.5 -78t-69.5 -29.5t-71 22l-162 107l-162 -107q-30 -22 -70.5 -22t-70 29.5t-29.5 78.5z"/>
            <glyph unicode="&#xe3;"
                   d="M80 560q0 232 164 396t395 164t396 -164t165 -396v-456q0 -43 -30.5 -73.5t-74 -30.5t-74 30.5t-30.5 73.5v20q-155 -124 -351 -124q-232 0 -396 164t-164 396zM231.5 1404.5q0.5 44.5 30.5 73t69.5 28.5t84.5 -33t86 -33t71 27q87 82 219 82q88 0 149 -33.5t88.5 -65.5 t27.5 -74.5t-30.5 -72t-68.5 -29.5t-85.5 33t-86 33t-71.5 -27q-90 -82 -219 -82q-89 0 -150 33t-88 64.5t-26.5 76zM289 560q0 -144 102 -248q102 -103 249 -103q146 0 248 104q103 104 103 247t-103 247q-102 104 -248 104q-74 0 -138 -28t-111 -75q-102 -104 -102 -248z "/>
            <glyph unicode="&#xe4;"
                   d="M80 560q0 232 164 396t395 164t396 -164t165 -396v-456q0 -43 -30.5 -73.5t-74 -30.5t-74 30.5t-30.5 73.5v20q-155 -124 -351 -124q-232 0 -396 164t-164 396zM289 560q0 -144 102 -248q102 -103 249 -103q146 0 248 104q103 104 103 247t-103 247q-102 104 -248 104 q-74 0 -138 -28t-111 -75q-102 -104 -102 -248zM293 1359q0 51 36 87t87 36t87 -36t36 -87t-36 -87t-87 -36t-87 36t-36 87zM748 1359q0 51 36 87t87 36t87 -36t36 -87t-36 -87t-87 -36t-87 36t-36 87z"/>
            <glyph unicode="&#xe5;"
                   d="M80 560q0 232 164 396t395 164t396 -164t165 -396v-456q0 -43 -30.5 -73.5t-74 -30.5t-74 30.5t-30.5 73.5v20q-155 -124 -351 -124q-232 0 -396 164t-164 396zM289 560q0 -144 102 -248q102 -103 249 -103q146 0 248 104q103 104 103 247t-103 247q-102 104 -248 104 q-74 0 -138 -28t-111 -75q-102 -104 -102 -248zM420 1379q0 90 65 155t155 65q89 0 155 -66q64 -64 64 -155q0 -44 -17.5 -84t-47.5 -70q-65 -65 -154 -65q-91 0 -155 64q-65 65 -65 156zM572 1378.5q0 -27.5 20 -47t47.5 -19.5t47 19.5t19.5 47t-19.5 47.5t-47 20 t-47.5 -20t-20 -47.5z"/>
            <glyph unicode="&#xe6;" horiz-adv-x="2240"
                   d="M92 560q0 232 164 396t396 164q267 0 456 -233q147 178 322 219q62 14 133 14q232 0 396 -164t164 -396q0 -45 -29.5 -74.5t-74.5 -29.5h-793q35 -112 130 -180q93 -67 207 -67q129 0 223 80q32 26 72.5 26t71 -29.5t30.5 -74.5t-31 -75q-155 -136 -358.5 -136 t-358.5 124v-20q0 -43 -22 -66q-39 -38 -71.5 -38t-51.5 8t-33 22q-31 31 -31 74v20q-155 -124 -351 -124q-232 0 -396 164t-164 396zM301 560q0 -146 102.5 -248.5t248.5 -102.5t248.5 102.5t102.5 248.5t-102.5 248.5t-248.5 102.5t-248.5 -102.5t-102.5 -248.5zM1226 664 h674q-35 112 -129 179q-96 68 -208 68q-114 0 -209 -69q-96 -69 -128 -178z"/>
            <glyph unicode="&#xe7;" horiz-adv-x="1120"
                   d="M78 560q0 232 164 396t385.5 164t375.5 -136q36 -32 36 -78t-29.5 -76t-71 -30t-82.5 34q-93 77 -218 77q-145 0 -249 -103q-103 -101 -103 -248t103 -248q104 -103 249 -103q128 0 228 86q28 21 69.5 21.5t71 -29t29.5 -74t-33 -77.5q-155 -136 -376 -136t-385 164 t-164 396zM309 -311q0 47 29.5 77.5t66.5 31t64 -16.5l72 -45q12 -6 24 -6q47 0 47 22t-45 23.5t-81.5 35t-23.5 85.5l40 139q6 23 28 47q31 28 74.5 28t73 -30.5t29.5 -74.5q0 -11 -3 -23l-9 -35q126 -74 126 -198q0 -97 -75 -162.5t-181 -65.5q-64 0 -123 31l-87 53 q-46 37 -46 84z"/>
            <glyph unicode="&#xe8;"
                   d="M80 560q0 232 164 396t395 164t397 -164q164 -162 164 -396q0 -45 -30.5 -74.5t-74.5 -29.5h-792q34 -110 127 -178q94 -69 216.5 -69t207.5 73q39 32 81 32.5t71.5 -29t29.5 -74t-30 -75.5q-155 -136 -376.5 -136t-385.5 164t-164 396zM303 664h674q-34 109 -129 178 q-93 69 -208 69t-210 -68.5t-127 -178.5zM401 1493.5q0 44.5 29.5 75t73 30.5t75.5 -31l200 -199q26 -28 26 -72t-29.5 -73.5t-74 -29.5t-72.5 28l-200 199q-28 28 -28 72.5z"/>
            <glyph unicode="&#xe9;"
                   d="M80 560q0 232 164 396t395 164t397 -164q164 -162 164 -396q0 -45 -30.5 -74.5t-74.5 -29.5h-792q34 -110 127 -178q94 -69 216.5 -69t207.5 73q39 32 81 32.5t71.5 -29t29.5 -74t-30 -75.5q-155 -136 -376.5 -136t-385.5 164t-164 396zM303 664h674q-34 109 -129 178 q-93 69 -208 69t-210 -68.5t-127 -178.5zM480 1297q0 44 26 72l200 199q32 31 75.5 31t73 -30.5t29.5 -75t-28 -72.5l-200 -199q-28 -28 -72.5 -28t-74 29.5t-29.5 73.5z"/>
            <glyph unicode="&#xea;"
                   d="M80 560q0 232 164 396t395 164t397 -164q164 -162 164 -396q0 -45 -30.5 -74.5t-74.5 -29.5h-792q34 -110 127 -178q94 -69 216.5 -69t207.5 73q39 32 81 32.5t71.5 -29t29.5 -74t-30 -75.5q-155 -136 -376.5 -136t-385.5 164t-164 396zM303 664h674q-34 109 -129 178 q-93 69 -208 69t-210 -68.5t-127 -178.5zM304 1347q0 49 49 86l229 151q25 16 54 16t54 -16l228 -151q50 -38 50 -86.5t-29.5 -78t-69.5 -29.5t-71 22l-162 107l-162 -107q-30 -22 -70.5 -22t-70 29.5t-29.5 78.5z"/>
            <glyph unicode="&#xeb;"
                   d="M80 560q0 232 164 396t395 164t397 -164q164 -162 164 -396q0 -45 -30.5 -74.5t-74.5 -29.5h-792q34 -110 127 -178q94 -69 216.5 -69t207.5 73q39 32 81 32.5t71.5 -29t29.5 -74t-30 -75.5q-155 -136 -376.5 -136t-385.5 164t-164 396zM293 1359q0 51 36 87t87 36 t87 -36t36 -87t-36 -87t-87 -36t-87 36t-36 87zM303 664h674q-34 109 -129 178q-93 69 -208 69t-210 -68.5t-127 -178.5zM748 1359q0 51 36 87t87 36t87 -36t36 -87t-36 -87t-87 -36t-87 36t-36 87z"/>
            <glyph unicode="&#xec;" horiz-adv-x="480"
                   d="M8 1493.5q0 44.5 29.5 75t73 30.5t75.5 -31l200 -199q26 -28 26 -72t-29.5 -73.5t-74 -29.5t-72.5 28l-200 199q-28 28 -28 72.5zM141 105v910q0 44 30.5 74.5t73.5 30.5t73.5 -30.5t31.5 -74.5v-910q-1 -44 -31.5 -74.5t-73.5 -30.5t-73.5 30.5t-30.5 74.5z"/>
            <glyph unicode="&#xed;" horiz-adv-x="480"
                   d="M81 1297q0 44 26 72l200 199q32 31 75.5 31t73 -30.5t29.5 -75t-28 -72.5l-200 -199q-28 -28 -72.5 -28t-74 29.5t-29.5 73.5zM141 105v910q0 44 30.5 74.5t73.5 30.5t73.5 -30.5t31.5 -74.5v-910q-1 -44 -31.5 -74.5t-73.5 -30.5t-73.5 30.5t-30.5 74.5z"/>
            <glyph unicode="&#xee;" horiz-adv-x="560"
                   d="M-46 1347q0 49 49 86l229 151q25 16 54 16t54 -16l228 -151q50 -38 50 -86.5t-29.5 -78t-69.5 -29.5t-71 22l-162 107l-162 -107q-30 -22 -70.5 -22t-70 29.5t-29.5 78.5zM180 105v910q0 44 30.5 74.5t73.5 30.5t73.5 -30.5t31.5 -74.5v-910q-1 -44 -31.5 -74.5 t-73.5 -30.5t-73.5 30.5t-30.5 74.5z"/>
            <glyph unicode="&#xef;" horiz-adv-x="600"
                   d="M-39 1359q0 51 36 87t87 36t87 -36t36 -87t-36 -87t-87 -36t-87 36t-36 87zM196 105v910q0 44 30.5 74.5t73.5 30.5t73.5 -30.5t31.5 -74.5v-910q-1 -44 -31.5 -74.5t-73.5 -30.5t-73.5 30.5t-30.5 74.5zM416 1359q0 51 36 87t87 36t87 -36t36 -87t-36 -87t-87 -36 t-87 36t-36 87z"/>
            <glyph unicode="&#xf0;"
                   d="M70 568q0 235 166.5 401.5t401.5 166.5q44 0 86 -6l-65 116l-110 -63q-20 -10 -47 -10q-61 0 -90 50q-14 25 -14 53q0 66 51 93l105 60l-16 28q-7 16 -7 38q0 43 23 66q40 40 87 40t72 -33l22 -33l96 57q19 9 46 9q61 0 91 -51q14 -25 14 -54q0 -64 -52 -92l-87 -51 l294 -511q69 -120 69 -274q0 -237 -167.5 -402.5t-401.5 -165.5t-401 166q-166 167 -166 402zM282 568q0 -146 104 -251q103 -105 252 -105q148 0 252 106q104 105 104 250t-104 250q-104 106 -252 106q-75 0 -140 -28.5t-112 -76.5q-104 -105 -104 -251z"/>
            <glyph unicode="&#xf1;" horiz-adv-x="1200"
                   d="M79 105v910q0 43 30.5 74t74 31t74 -31t30.5 -72q133 103 313 103q210 0 366 -152q156 -153 156 -370v-493q0 -44 -30.5 -74.5t-74 -30.5t-74 30.5t-30.5 74.5v493q0 128 -92.5 220.5t-220.5 92.5q-129 0 -221 -92t-92 -221v-493q0 -44 -30.5 -74.5t-74 -30.5t-74 30.5 t-30.5 74.5zM196.5 1404.5q0.5 44.5 30.5 73t69.5 28.5t84.5 -33t86 -33t71 27q87 82 219 82q88 0 149 -33.5t88.5 -65.5t27.5 -74.5t-30.5 -72t-68.5 -29.5t-85.5 33t-86 33t-71.5 -27q-90 -82 -219 -82q-89 0 -150 33t-88 64.5t-26.5 76z"/>
            <glyph unicode="&#xf2;"
                   d="M80 560q0 232 164 396t395 164t397 -164q162 -162 163 -396t-164 -397t-396 -163t-395 164t-164 396zM289 560q0 -144 102 -248q102 -103 249 -103q146 0 248 104q103 104 103 247t-103 247q-102 104 -248 104q-74 0 -138 -28t-111 -75q-102 -104 -102 -248zM401 1493.5 q0 44.5 29.5 75t73 30.5t75.5 -31l200 -199q26 -28 26 -72t-29.5 -73.5t-74 -29.5t-72.5 28l-200 199q-28 28 -28 72.5z"/>
            <glyph unicode="&#xf3;"
                   d="M80 560q0 232 164 396t395 164t397 -164q162 -162 163 -396t-164 -397t-396 -163t-395 164t-164 396zM289 560q0 -144 102 -248q102 -103 249 -103q146 0 248 104q103 104 103 247t-103 247q-102 104 -248 104q-74 0 -138 -28t-111 -75q-102 -104 -102 -248zM480 1297 q0 44 26 72l200 199q32 31 75.5 31t73 -30.5t29.5 -75t-28 -72.5l-200 -199q-28 -28 -72.5 -28t-74 29.5t-29.5 73.5z"/>
            <glyph unicode="&#xf4;"
                   d="M80 560q0 232 164 396t395 164t397 -164q162 -162 163 -396t-164 -397t-396 -163t-395 164t-164 396zM289 560q0 -144 102 -248q102 -103 249 -103q146 0 248 104q103 104 103 247t-103 247q-102 104 -248 104q-74 0 -138 -28t-111 -75q-102 -104 -102 -248zM304 1347 q0 49 49 86l229 151q25 16 54 16t54 -16l228 -151q50 -38 50 -86.5t-29.5 -78t-69.5 -29.5t-71 22l-162 107l-162 -107q-30 -22 -70.5 -22t-70 29.5t-29.5 78.5z"/>
            <glyph unicode="&#xf5;"
                   d="M80 560q0 232 164 396t395 164t397 -164q162 -162 163 -396t-164 -397t-396 -163t-395 164t-164 396zM231.5 1404.5q0.5 44.5 30.5 73t69.5 28.5t84.5 -33t86 -33t71 27q87 82 219 82q88 0 149 -33.5t88.5 -65.5t27.5 -74.5t-30.5 -72t-68.5 -29.5t-85.5 33t-86 33 t-71.5 -27q-90 -82 -219 -82q-89 0 -150 33t-88 64.5t-26.5 76zM289 560q0 -144 102 -248q102 -103 249 -103q146 0 248 104q103 104 103 247t-103 247q-102 104 -248 104q-74 0 -138 -28t-111 -75q-102 -104 -102 -248z"/>
            <glyph unicode="&#xf6;"
                   d="M80 560q0 232 164 396t395 164t397 -164q162 -162 163 -396t-164 -397t-396 -163t-395 164t-164 396zM289 560q0 -144 102 -248q102 -103 249 -103q146 0 248 104q103 104 103 247t-103 247q-102 104 -248 104q-74 0 -138 -28t-111 -75q-102 -104 -102 -248zM293 1359 q0 51 36 87t87 36t87 -36t36 -87t-36 -87t-87 -36t-87 36t-36 87zM748 1359q0 51 36 87t87 36t87 -36t36 -87t-36 -87t-87 -36t-87 36t-36 87z"/>
            <glyph unicode="&#xf7;" horiz-adv-x="960"
                   d="M76 712q0 45 29.5 74.5t74.5 29.5h608q45 0 74.5 -29.5t29.5 -74.5t-29.5 -75t-74.5 -30h-608q-45 0 -74.5 30t-29.5 75zM360 427.5q0 51.5 36 87.5t87.5 36t87.5 -36t36 -87.5t-36 -87.5t-87.5 -36t-87.5 36t-36 87.5zM360 996.5q0 51.5 36 87.5t87.5 36t87.5 -36 t36 -87.5t-36 -87.5t-87.5 -36t-87.5 36t-36 87.5z"/>
            <glyph unicode="&#xf8;"
                   d="M80 104q0 45 28 73l69 68q-97 136 -97 315q0 232 164 396t396 164q180 0 316 -97l63 64q31 33 64.5 33t52.5 -8t33 -22q31 -33 31 -74.5t-30 -72.5l-67 -68q97 -137 97 -315q0 -234 -165 -397t-395 -163q-179 0 -315 97l-70 -73q-27 -24 -60 -24t-52 8t-33 22 q-30 32 -30 74zM289 560q0 -91 38 -164l477 475q-70 40 -154 40t-148 -28t-111 -75q-102 -104 -102 -248zM476 248q72 -39 154.5 -39t146.5 28t111 76q103 104 103 247q0 92 -39 164z"/>
            <glyph unicode="&#xf9;" horiz-adv-x="1200"
                   d="M79 522v494q0 43 30.5 73.5t74 30.5t74 -30.5t30.5 -73.5v-494q0 -130 91.5 -221.5t221.5 -91.5q129 0 221 92t92 221v494q0 43 30.5 73.5t74 30.5t74 -30.5t30.5 -73.5v-912q0 -43 -30.5 -73.5t-75 -30.5t-73.5 30t-30 73q-132 -103 -313 -103q-214 0 -368 154t-154 368 zM391 1493.5q0 44.5 29.5 75t73 30.5t75.5 -31l200 -199q26 -28 26 -72t-29.5 -73.5t-74 -29.5t-72.5 28l-200 199q-28 28 -28 72.5z"/>
            <glyph unicode="&#xfa;" horiz-adv-x="1200"
                   d="M79 522v494q0 43 30.5 73.5t74 30.5t74 -30.5t30.5 -73.5v-494q0 -130 91.5 -221.5t221.5 -91.5q129 0 221 92t92 221v494q0 43 30.5 73.5t74 30.5t74 -30.5t30.5 -73.5v-912q0 -43 -30.5 -73.5t-75 -30.5t-73.5 30t-30 73q-132 -103 -313 -103q-214 0 -368 154t-154 368 zM424 1297q0 44 26 72l200 199q32 31 75.5 31t73 -30.5t29.5 -75t-28 -72.5l-200 -199q-28 -28 -72.5 -28t-74 29.5t-29.5 73.5z"/>
            <glyph unicode="&#xfb;" horiz-adv-x="1200"
                   d="M79 522v494q0 43 30.5 73.5t74 30.5t74 -30.5t30.5 -73.5v-494q0 -130 91.5 -221.5t221.5 -91.5q129 0 221 92t92 221v494q0 43 30.5 73.5t74 30.5t74 -30.5t30.5 -73.5v-912q0 -43 -30.5 -73.5t-75 -30.5t-73.5 30t-30 73q-132 -103 -313 -103q-214 0 -368 154t-154 368 zM264 1347q0 49 49 86l229 151q25 16 54 16t54 -16l228 -151q50 -38 50 -86.5t-29.5 -78t-69.5 -29.5t-71 22l-162 107l-162 -107q-30 -22 -70.5 -22t-70 29.5t-29.5 78.5z"/>
            <glyph unicode="&#xfc;" horiz-adv-x="1200"
                   d="M79 522v494q0 43 30.5 73.5t74 30.5t74 -30.5t30.5 -73.5v-494q0 -130 91.5 -221.5t221.5 -91.5q129 0 221 92t92 221v494q0 43 30.5 73.5t74 30.5t74 -30.5t30.5 -73.5v-912q0 -43 -30.5 -73.5t-75 -30.5t-73.5 30t-30 73q-132 -103 -313 -103q-214 0 -368 154t-154 368 zM253 1359q0 51 36 87t87 36t87 -36t36 -87t-36 -87t-87 -36t-87 36t-36 87zM708 1359q0 51 36 87t87 36t87 -36t36 -87t-36 -87t-87 -36t-87 36t-36 87z"/>
            <glyph unicode="&#xfd;" horiz-adv-x="1120"
                   d="M78 1014.5q0 22.5 8 41.5t22 34q29 30 67 30q78 0 106 -69l281 -671l281 673q27 67 98 67q68 0 97 -64q8 -19 8 -40.5t-11 -46.5l-575 -1379q-13 -31 -40 -50.5t-65.5 -19.5t-68 30t-29.5 64.5t10 56.5l181 433l-360 865q-10 23 -10 45.5zM451 1297q0 44 26 72l200 199 q32 31 75.5 31t73 -30.5t29.5 -75t-28 -72.5l-200 -199q-28 -28 -72.5 -28t-74 29.5t-29.5 73.5z"/>
            <glyph unicode="&#xfe;"
                   d="M80 -374v1870q0 45 29.5 74.5t74 29.5t75 -29.5t30.5 -74.5v-498q155 124 368 124t379 -164q164 -162 164 -396t-165 -397t-378 -163t-368 124v-500q0 -42 -23 -66q-37 -39 -82 -39t-74.5 30t-29.5 75zM289 562q0 -144 102 -248q102 -103 249 -103q146 0 248 104 q103 104 103 247t-103 247q-102 104 -248 104q-147 0 -249 -103q-102 -104 -102 -248z"/>
            <glyph unicode="&#xff;" horiz-adv-x="1120"
                   d="M78 1014.5q0 22.5 8 41.5t22 34q29 30 67 30q78 0 106 -69l281 -671l281 673q27 67 98 67q68 0 97 -64q8 -19 8 -40.5t-11 -46.5l-575 -1379q-13 -31 -40 -50.5t-65.5 -19.5t-68 30t-29.5 64.5t10 56.5l181 433l-360 865q-10 23 -10 45.5zM213 1359q0 51 36 87t87 36 t87 -36t36 -87t-36 -87t-87 -36t-87 36t-36 87zM668 1359q0 51 36 87t87 36t87 -36t36 -87t-36 -87t-87 -36t-87 36t-36 87z"/>
            <glyph unicode="&#x152;" horiz-adv-x="2160"
                   d="M84 799.5q0 331.5 234.5 566t565.5 234.5h1080q45 0 68 -22q38 -39 38 -73t-8 -53t-22 -34q-31 -30 -76 -30h-820v-482h589q45 0 67 -22q39 -39 39 -73t-8.5 -53.5t-22.5 -33.5q-31 -31 -75 -31h-589v-481h819q45 0 67 -22q39 -39 39 -73t-8 -53t-23 -34q-30 -30 -75 -30 h-1079q-332 0 -566 234t-234 565.5zM296 799.5q0 -244.5 171.5 -416t416.5 -171.5h48v1176h-48q-244 0 -416 -172t-172 -416.5z"/>
            <glyph unicode="&#x153;" horiz-adv-x="2240"
                   d="M92 560q0 232 164 396t396 164q267 0 456 -233q147 178 322 219q62 14 133 14q232 0 396 -164t164 -396q0 -45 -29.5 -74.5t-74.5 -29.5h-793q35 -112 130 -180q93 -67 207 -67q129 0 223 80q32 26 72.5 26t71 -29.5t30.5 -75t-31 -74.5q-155 -136 -366 -136 q-283 0 -455 233q-185 -233 -456 -233q-232 0 -396 164t-164 396zM301 560q0 -146 102.5 -248.5t248.5 -102.5t248.5 102.5t102.5 248.5t-102.5 248.5t-248.5 102.5t-248.5 -102.5t-102.5 -248.5zM1226 664h674q-35 112 -129 179q-96 68 -208 68q-114 0 -209 -69 q-96 -69 -128 -178z"/>
            <glyph unicode="&#x178;"
                   d="M76 1499q0 39 31 70t81 31t80 -44l376 -563l376 563q31 44 81 44t80.5 -31t30.5 -71t-16 -64l-446 -666v-662q0 -44 -31 -75t-74.5 -31t-75 31t-31.5 75v662l-445 666q-17 26 -17 65zM293 1839q0 51 36 87t87 36t87 -36t36 -87t-36 -87t-87 -36t-87 36t-36 87zM748 1839 q0 51 36 87t87 36t87 -36t36 -87t-36 -87t-87 -36t-87 36t-36 87z"/>
            <glyph unicode="&#x2c6;" horiz-adv-x="800"
                   d="M64 1347q0 49 49 86l229 151q25 16 54 16t54 -16l228 -151q50 -38 50 -86.5t-29.5 -78t-69.5 -29.5t-71 22l-162 107l-162 -107q-30 -22 -70.5 -22t-70 29.5t-29.5 78.5z"/>
            <glyph unicode="&#x2dc;" horiz-adv-x="960"
                   d="M67.5 1404.5q0.5 44.5 30.5 73t69.5 28.5t84.5 -33t86 -33t71 27q87 82 219 82q88 0 149 -33.5t88.5 -65.5t27.5 -74.5t-30.5 -72t-68.5 -29.5t-85.5 33t-86 33t-71.5 -27q-90 -82 -219 -82q-89 0 -150 33t-88 64.5t-26.5 76z"/>
            <glyph unicode="&#x2000;" horiz-adv-x="1040"/>
            <glyph unicode="&#x2001;" horiz-adv-x="2080"/>
            <glyph unicode="&#x2002;" horiz-adv-x="1040"/>
            <glyph unicode="&#x2003;" horiz-adv-x="2080"/>
            <glyph unicode="&#x2004;" horiz-adv-x="693"/>
            <glyph unicode="&#x2005;" horiz-adv-x="520"/>
            <glyph unicode="&#x2006;" horiz-adv-x="346"/>
            <glyph unicode="&#x2007;" horiz-adv-x="346"/>
            <glyph unicode="&#x2008;" horiz-adv-x="260"/>
            <glyph unicode="&#x2009;" horiz-adv-x="416"/>
            <glyph unicode="&#x200a;" horiz-adv-x="115"/>
            <glyph unicode="&#x2010;" horiz-adv-x="800"
                   d="M74 560q0 45 29.5 74.5t74.5 29.5h456q45 0 74.5 -29.5t29.5 -74.5t-29.5 -74.5t-74.5 -29.5h-456q-45 0 -74.5 29.5t-29.5 74.5z"/>
            <glyph unicode="&#x2011;" horiz-adv-x="800"
                   d="M74 560q0 45 29.5 74.5t74.5 29.5h456q45 0 74.5 -29.5t29.5 -74.5t-29.5 -74.5t-74.5 -29.5h-456q-45 0 -74.5 29.5t-29.5 74.5z"/>
            <glyph unicode="&#x2012;" horiz-adv-x="800"
                   d="M74 560q0 45 29.5 74.5t74.5 29.5h456q45 0 74.5 -29.5t29.5 -74.5t-29.5 -74.5t-74.5 -29.5h-456q-45 0 -74.5 29.5t-29.5 74.5z"/>
            <glyph unicode="&#x2013;" horiz-adv-x="800"
                   d="M-104 560q0 45 29.5 74.5t74.5 29.5h802q44 0 74.5 -29.5t30.5 -74.5t-30.5 -74.5t-74.5 -29.5h-802q-45 0 -74.5 29.5t-29.5 74.5z"/>
            <glyph unicode="&#x2014;" horiz-adv-x="1920"
                   d="M-104 560q0 45 29.5 74.5t74.5 29.5h1919q45 0 74.5 -29.5t29.5 -74.5t-29.5 -74.5t-74.5 -29.5h-1919q-45 0 -74.5 29.5t-29.5 74.5z"/>
            <glyph unicode="&#x2018;" horiz-adv-x="480"
                   d="M108 1214q0 177 151 358q27 27 61.5 27t59.5 -25t25 -51t-7 -44q-45 -110 -45 -206.5t41 -184.5q11 -25 11 -50t-10 -47.5t-27 -39.5q-34 -36 -83.5 -36t-82.5 32t-54 79q-40 88 -40 188z"/>
            <glyph unicode="&#x2019;" horiz-adv-x="480"
                   d="M108 991q0 26 7 44q45 110 45 206.5t-41 184.5q-11 25 -11 50t10 47.5t26 39.5q35 36 84.5 36t82.5 -32t54 -79q40 -88 40 -188q0 -177 -151 -358q-27 -27 -61.5 -27t-59.5 25t-25 51z"/>
            <glyph unicode="&#x201a;" horiz-adv-x="480"
                   d="M108 198q0 25 10 47.5t26 39.5q35 36 84.5 36t82.5 -32t54 -79q40 -88 40 -188q0 -177 -151 -358q-27 -27 -61.5 -27t-59.5 25t-25 51t7 44q45 110 45 206.5t-41 184.5q-11 25 -11 50z"/>
            <glyph unicode="&#x201c;" horiz-adv-x="760"
                   d="M73 1214q0 177 151 358q27 27 61.5 27t59.5 -25t25 -51t-7 -44q-45 -110 -45 -206.5t41 -184.5q11 -25 11 -50t-10 -47.5t-26 -39.5q-35 -36 -84.5 -36t-82.5 32t-54 79q-40 88 -40 188zM402 1214q0 177 151 358q27 27 61.5 27t59.5 -25t25 -51t-7 -44 q-45 -110 -45 -206.5t41 -184.5q11 -25 11 -50t-10 -47.5t-27 -39.5q-34 -36 -83.5 -36t-82.5 32t-54 79q-40 88 -40 188z"/>
            <glyph unicode="&#x201d;" horiz-adv-x="760"
                   d="M73 991q0 26 7 44q45 110 45 206.5t-41 184.5q-11 25 -11 50t10 47.5t27 39.5q34 36 83.5 36t82.5 -32t54 -79q40 -88 40 -188q0 -177 -151 -358q-27 -27 -61.5 -27t-59.5 25t-25 51zM402 991q0 26 7 44q45 110 45 206.5t-41 184.5q-11 25 -11 50t10 47.5t26 39.5 q35 36 84.5 36t82.5 -32t54 -79q40 -88 40 -188q0 -177 -151 -358q-27 -27 -61.5 -27t-59.5 25t-25 51z"/>
            <glyph unicode="&#x201e;" horiz-adv-x="760"
                   d="M73 198q0 25 10 47.5t27 39.5q34 36 83.5 36t82.5 -32t54 -79q40 -88 40 -188q0 -177 -151 -358q-27 -27 -61.5 -27t-59.5 25t-25 51t7 44q45 110 45 206.5t-41 184.5q-11 25 -11 50zM402 198q0 25 10 47.5t26 39.5q35 36 84.5 36t82.5 -32t54 -79q40 -88 40 -188 q0 -177 -151 -358q-27 -27 -61.5 -27t-59.5 25t-25 51t7 44q45 110 45 206.5t-41 184.5q-11 25 -11 50z"/>
            <glyph unicode="&#x2022;" horiz-adv-x="800"
                   d="M150 788q0 106 77 182q76 74 179 74t179.5 -76.5t76.5 -179.5t-74 -179q-76 -77 -182 -77t-181 75t-75 181z"/>
            <glyph unicode="&#x2026;" horiz-adv-x="1440"
                   d="M81 126.5q0 43.5 11 69.5t30 46q41 43 85.5 43t70.5 -11.5t45.5 -31t30.5 -45.5t11 -55.5t-11.5 -55.5t-31.5 -45q-42 -41 -85 -41t-69 11t-46 31q-41 41 -41 84.5zM556 127q0 43 11 69t31 46q43 43 86.5 43t69.5 -11.5t46 -31.5q41 -41 41 -100q0 -58 -43 -100 q-41 -42 -99 -42q-59 0 -101 42t-42 85zM1032 126.5q0 43.5 11 69.5t30 46q41 43 101 43q58 0 102 -43q41 -42 41 -86q0 -72 -42 -114t-101 -42t-100.5 41.5t-41.5 85z"/>
            <glyph unicode="&#x202f;" horiz-adv-x="416"/>
            <glyph unicode="&#x2039;" horiz-adv-x="560"
                   d="M76 558.5q0 24.5 13 50.5l223 446q28 64 96 64q45 0 74.5 -29.5t29.5 -64.5t-9 -55l-205 -410l205 -412q9 -19 9 -42t-8 -42t-22 -34q-29 -30 -66 -30q-74 0 -104 64l-221 441q-15 29 -15 53.5z"/>
            <glyph unicode="&#x203a;" horiz-adv-x="560"
                   d="M77 106q0 23 9 42l205 412l-205 410q-9 20 -9 55t29.5 64.5t67.5 29.5q75 0 103 -64l223 -446q13 -26 13 -50.5t-15 -53.5l-221 -441q-30 -64 -96 -64q-69 0 -96 64q-8 19 -8 42z"/>
            <glyph unicode="&#x205f;" horiz-adv-x="520"/>
            <glyph unicode="&#x20ac;" horiz-adv-x="1480"
                   d="M82 798q0 331 235 566t564 235q283 0 514 -188q28 -28 28 -73.5t-31 -75.5t-74 -30t-97 45.5t-146 77.5t-184 32t-169.5 -21.5t-145.5 -63.5q-144 -86 -223 -243h837q45 0 75 -30t30 -75.5t-30 -76t-75 -30.5h-895q-4 -48 0 -96h895q45 0 75 -30t30 -76t-30 -75.5 t-75 -29.5h-837q118 -235 369 -306q78 -22 159 -22q209 0 369 129q28 19 55.5 19t46.5 -8t34 -23q31 -31 31 -75.5t-33 -74.5q-223 -179 -503 -179q-329 0 -564 233.5t-235 564.5z"/>
            <glyph unicode="&#x2122;" horiz-adv-x="1500"
                   d="M55 982q0 17 14 29.5t33 12.5h451q20 0 34 -12.5t14 -29.5q0 -18 -14 -30.5t-34 -12.5h-177v-513q0 -17 -14 -29.5t-34 -12.5t-34 12.5t-14 29.5v513h-178q-19 0 -33 12.5t-14 30.5zM326 426v556q0 18 10 27q17 15 41.5 15t38.5 -23l270 -479l270 479q16 23 42 23 q21 0 31 -9q17 -15 17 -33v-556q0 -17 -14 -29.5t-34 -12.5q-19 0 -33 12.5t-14 29.5v376l-224 -397q-14 -21 -42.5 -21t-42.5 26l-221 392v-376q0 -17 -13.5 -29.5t-33.5 -12.5t-34 12.5t-14 29.5z"/>
            <glyph unicode="&#xe000;" horiz-adv-x="1120" d="M0 0v1120h1120v-1120h-1120z"/>
        </font>
</defs>
</svg>
